STARTFONT 2.1
COMMENT
COMMENT Converted from OpenType font "FontAwesome.otf" by "otf2bdf 3.0".
COMMENT
FONT -FreeType-FontAwesome-Medium-R-Normal--12-120-75-75-P-114-ISO10646-1
SIZE 12 75 75
FONTBOUNDINGBOX 16 14 0 -3
STARTPROPERTIES 19
FOUNDRY "FreeType"
FAMILY_NAME "FontAwesome"
WEIGHT_NAME "Medium"
SLANT "R"
SETWIDTH_NAME "Normal"
ADD_STYLE_NAME ""
PIXEL_SIZE 12
POINT_SIZE 120
RESOLUTION_X 75
RESOLUTION_Y 75
SPACING "P"
AVERAGE_WIDTH 114
CHARSET_REGISTRY "ISO10646"
CHARSET_ENCODING "1"
FONT_ASCENT 10
FONT_DESCENT 2
COPYRIGHT "Copyright Dave Gandy 2015. All rights reserved."
_OTF_FONTFILE "FontAwesome.otf"
_OTF_PSNAME "FontAwesome"
ENDPROPERTIES
CHARS 629
STARTCHAR 0020
ENCODING 32
SWIDTH 240 0
DWIDTH 3 0
BBX 0 0 0 0
BITMAP
ENDCHAR
STARTCHAR 00A8
ENCODING 168
SWIDTH 1040 0
DWIDTH 13 0
BBX 0 0 0 0
BITMAP
ENDCHAR
STARTCHAR 00A9
ENCODING 169
SWIDTH 1040 0
DWIDTH 13 0
BBX 0 0 0 0
BITMAP
ENDCHAR
STARTCHAR 00AE
ENCODING 174
SWIDTH 1040 0
DWIDTH 13 0
BBX 0 0 0 0
BITMAP
ENDCHAR
STARTCHAR 00B4
ENCODING 180
SWIDTH 1040 0
DWIDTH 13 0
BBX 0 0 0 0
BITMAP
ENDCHAR
STARTCHAR 00C6
ENCODING 198
SWIDTH 1040 0
DWIDTH 13 0
BBX 0 0 0 0
BITMAP
ENDCHAR
STARTCHAR 00D8
ENCODING 216
SWIDTH 1040 0
DWIDTH 13 0
BBX 0 0 0 0
BITMAP
ENDCHAR
STARTCHAR 2122
ENCODING 8482
SWIDTH 1040 0
DWIDTH 13 0
BBX 0 0 0 0
BITMAP
ENDCHAR
STARTCHAR 221E
ENCODING 8734
SWIDTH 1040 0
DWIDTH 13 0
BBX 0 0 0 0
BITMAP
ENDCHAR
STARTCHAR 2260
ENCODING 8800
SWIDTH 1040 0
DWIDTH 13 0
BBX 0 0 0 0
BITMAP
ENDCHAR
STARTCHAR F000
ENCODING 61440
SWIDTH 1040 0
DWIDTH 13 0
BBX 11 12 1 -2
BITMAP
FFE0
FFC0
7F80
3F00
1E00
0C00
0C00
0C00
0C00
0C00
0C00
3F80
ENDCHAR
STARTCHAR F001
ENCODING 61441
SWIDTH 880 0
DWIDTH 11 0
BBX 11 12 0 -2
BITMAP
00E0
07E0
1FE0
1FE0
1F20
1820
1820
19E0
1BE0
F9C0
F800
7000
ENDCHAR
STARTCHAR F002
ENCODING 61442
SWIDTH 960 0
DWIDTH 12 0
BBX 12 12 0 -2
BITMAP
1E00
7F80
6180
C0C0
C0C0
C0C0
C0C0
6180
7FC0
1EE0
0070
0020
ENDCHAR
STARTCHAR F003
ENCODING 61443
SWIDTH 1040 0
DWIDTH 13 0
BBX 13 10 0 -1
BITMAP
FFF0
8018
C018
E038
B058
9998
8718
8018
8018
FFF0
ENDCHAR
STARTCHAR F004
ENCODING 61444
SWIDTH 1040 0
DWIDTH 13 0
BBX 13 11 0 -1
BITMAP
79E0
FFF0
FFF8
FFF8
FFF0
7FF0
7FE0
3FC0
0F80
0700
0200
ENDCHAR
STARTCHAR F005
ENCODING 61445
SWIDTH 960 0
DWIDTH 12 0
BBX 12 12 0 -1
BITMAP
0400
0600
0E00
0F00
FFF0
FFE0
3FC0
1F80
3F80
3F80
39C0
2000
ENDCHAR
STARTCHAR F006
ENCODING 61446
SWIDTH 960 0
DWIDTH 12 0
BBX 12 12 0 -1
BITMAP
0400
0600
0E00
0B00
F9F0
C060
20C0
1080
3080
2F80
39C0
2000
ENDCHAR
STARTCHAR F007
ENCODING 61447
SWIDTH 800 0
DWIDTH 10 0
BBX 10 11 0 -1
BITMAP
1E00
3E00
3F00
3F00
1E00
7B80
FFC0
FFC0
FFC0
FFC0
7F80
ENDCHAR
STARTCHAR F008
ENCODING 61448
SWIDTH 1040 0
DWIDTH 13 0
BBX 14 12 0 -2
BITMAP
FFF8
902C
B02C
F03C
902C
FFFC
B02C
902C
F03C
902C
902C
FFF8
ENDCHAR
STARTCHAR F009
ENCODING 61449
SWIDTH 960 0
DWIDTH 12 0
BBX 12 10 0 0
BITMAP
FBF0
FBF0
FBF0
FBF0
F9E0
F9E0
FBF0
FBF0
FBF0
FBF0
ENDCHAR
STARTCHAR F00A
ENCODING 61450
SWIDTH 1040 0
DWIDTH 13 0
BBX 13 10 0 0
BITMAP
FF78
FF78
FF70
6630
FF78
FF78
0000
FF70
FF78
FF78
ENDCHAR
STARTCHAR F00B
ENCODING 61451
SWIDTH 1040 0
DWIDTH 13 0
BBX 13 10 0 0
BITMAP
FFF8
FFF8
FFF0
67F0
FFF8
FFF8
0000
FFF0
FFF8
FFF8
ENDCHAR
STARTCHAR F00C
ENCODING 61452
SWIDTH 1040 0
DWIDTH 13 0
BBX 11 8 1 1
BITMAP
00E0
01E0
C3C0
E780
FF00
7E00
3C00
1800
ENDCHAR
STARTCHAR F00D
ENCODING 61453
SWIDTH 800 0
DWIDTH 10 0
BBX 8 8 1 0
BITMAP
E7
FF
FE
7C
7E
FF
EF
C6
ENDCHAR
STARTCHAR F00E
ENCODING 61454
SWIDTH 960 0
DWIDTH 12 0
BBX 12 12 0 -2
BITMAP
1E00
7F80
6180
C8C0
DEC0
DEC0
C8C0
6180
7FC0
1EE0
0070
0020
ENDCHAR
STARTCHAR F010
ENCODING 61456
SWIDTH 960 0
DWIDTH 12 0
BBX 12 12 0 -2
BITMAP
1E00
7F80
6180
C0C0
DEC0
DEC0
C0C0
6180
7FC0
1EE0
0070
0020
ENDCHAR
STARTCHAR F011
ENCODING 61457
SWIDTH 880 0
DWIDTH 11 0
BBX 11 12 0 -1
BITMAP
0400
0C00
3D80
6DC0
CCC0
CC60
C460
C060
E0C0
71C0
3F80
1E00
ENDCHAR
STARTCHAR F012
ENCODING 61458
SWIDTH 1040 0
DWIDTH 13 0
BBX 13 11 0 -1
BITMAP
0018
0018
0018
00D8
00D8
00D8
06D8
06D8
1ED8
DED8
DED8
ENDCHAR
STARTCHAR F013
ENCODING 61459
SWIDTH 880 0
DWIDTH 11 0
BBX 11 11 0 -1
BITMAP
0E00
2F80
7FC0
3F80
F1E0
F1E0
F1E0
7F80
7FC0
2E80
0E00
ENDCHAR
STARTCHAR F014
ENCODING 61460
SWIDTH 800 0
DWIDTH 10 0
BBX 10 11 0 -1
BITMAP
1E00
3200
FFC0
4080
5A80
5A80
5A80
5A80
5A80
4080
7F80
ENDCHAR
STARTCHAR F015
ENCODING 61461
SWIDTH 960 0
DWIDTH 12 0
BBX 12 9 0 0
BITMAP
06C0
1FC0
37C0
7FE0
FFB0
3FC0
39C0
39C0
39C0
ENDCHAR
STARTCHAR F016
ENCODING 61462
SWIDTH 880 0
DWIDTH 11 0
BBX 11 13 0 -2
BITMAP
FF00
8380
82C0
8260
83E0
8020
8020
8020
8020
8020
8020
8020
FFE0
ENDCHAR
STARTCHAR F017
ENCODING 61463
SWIDTH 880 0
DWIDTH 11 0
BBX 11 11 0 -1
BITMAP
1F00
3F80
60C0
C4C0
C460
DC60
C060
C0C0
61C0
3F80
1E00
ENDCHAR
STARTCHAR F018
ENCODING 61464
SWIDTH 1040 0
DWIDTH 13 0
BBX 13 9 0 0
BITMAP
1DC0
1DE0
3FE0
3DE0
3CF0
7FF0
7FF8
FCF8
FCF8
ENDCHAR
STARTCHAR F019
ENCODING 61465
SWIDTH 960 0
DWIDTH 12 0
BBX 12 11 0 0
BITMAP
0E00
0E00
0E00
0E00
3F80
1F00
0E00
F5F0
FFF0
FF50
FFF0
ENDCHAR
STARTCHAR F01A
ENCODING 61466
SWIDTH 880 0
DWIDTH 11 0
BBX 11 11 0 -1
BITMAP
1F00
3F80
60C0
CCC0
CC60
DF60
DE60
CCC0
61C0
3F80
1E00
ENDCHAR
STARTCHAR F01B
ENCODING 61467
SWIDTH 880 0
DWIDTH 11 0
BBX 11 11 0 -1
BITMAP
1F00
3F80
60C0
CCC0
DE60
DF60
CC60
CCC0
61C0
3F80
1E00
ENDCHAR
STARTCHAR F01C
ENCODING 61468
SWIDTH 880 0
DWIDTH 11 0
BBX 11 9 0 0
BITMAP
3F80
60C0
60C0
C040
C060
F1E0
FFE0
FFE0
FFE0
ENDCHAR
STARTCHAR F01D
ENCODING 61469
SWIDTH 880 0
DWIDTH 11 0
BBX 11 11 0 -1
BITMAP
1F00
3F80
60C0
DCC0
DE60
DF60
DE60
D8C0
61C0
3F80
1E00
ENDCHAR
STARTCHAR F01E
ENCODING 61470
SWIDTH 880 0
DWIDTH 11 0
BBX 11 11 0 -1
BITMAP
1F20
3FE0
61E0
C1E0
C1E0
C000
C000
E080
71C0
3F80
1E00
ENDCHAR
STARTCHAR F021
ENCODING 61473
SWIDTH 880 0
DWIDTH 11 0
BBX 11 11 0 -1
BITMAP
1F20
3FE0
61E0
C1E0
C1E0
0000
F060
F0C0
F1C0
FF80
1E00
ENDCHAR
STARTCHAR F022
ENCODING 61474
SWIDTH 1040 0
DWIDTH 13 0
BBX 13 10 0 0
BITMAP
FFF0
FFF8
FFF8
8FD8
AFF8
BFF8
8018
BFF8
8018
FFF0
ENDCHAR
STARTCHAR F023
ENCODING 61475
SWIDTH 640 0
DWIDTH 8 0
BBX 8 10 0 0
BITMAP
3C
7E
42
42
FF
FF
FF
FF
FF
FF
ENDCHAR
STARTCHAR F024
ENCODING 61476
SWIDTH 1040 0
DWIDTH 13 0
BBX 13 11 0 -1
BITMAP
C000
DF98
7FF8
7FF8
7FF8
7FF8
7FF8
70F0
4000
4000
4000
ENDCHAR
STARTCHAR F025
ENCODING 61477
SWIDTH 960 0
DWIDTH 12 0
BBX 12 10 0 0
BITMAP
1F00
3FC0
6060
C020
C030
9930
F9F0
F9E0
39C0
1980
ENDCHAR
STARTCHAR F026
ENCODING 61478
SWIDTH 400 0
DWIDTH 5 0
BBX 5 9 0 0
BITMAP
08
18
F8
F8
F8
F8
38
18
08
ENDCHAR
STARTCHAR F027
ENCODING 61479
SWIDTH 640 0
DWIDTH 8 0
BBX 8 9 0 0
BITMAP
08
18
F8
FB
F9
FB
38
18
08
ENDCHAR
STARTCHAR F028
ENCODING 61480
SWIDTH 960 0
DWIDTH 12 0
BBX 12 10 0 0
BITMAP
0080
08C0
1960
F8A0
FB70
F950
FB70
38A0
1960
08C0
ENDCHAR
STARTCHAR F029
ENCODING 61481
SWIDTH 800 0
DWIDTH 10 0
BBX 10 10 0 0
BITMAP
FFC0
9C40
BD40
FFC0
FFC0
FF40
9FC0
BDC0
9C00
FD40
ENDCHAR
STARTCHAR F02A
ENCODING 61482
SWIDTH 1040 0
DWIDTH 13 0
BBX 13 10 0 0
BITMAP
FFD8
FFD8
FFD8
FFD8
FFD8
FFD8
FFD8
FFD8
FFD8
FFD8
ENDCHAR
STARTCHAR F02B
ENCODING 61483
SWIDTH 880 0
DWIDTH 11 0
BBX 11 11 0 -1
BITMAP
F800
FC00
9E00
FF00
FF80
7FC0
3FE0
1FC0
0F80
0700
0200
ENDCHAR
STARTCHAR F02C
ENCODING 61484
SWIDTH 1040 0
DWIDTH 13 0
BBX 13 11 0 -1
BITMAP
FB00
FD80
9EC0
FF60
FFB0
7FD8
3FE8
1FD8
0FB0
0760
02C0
ENDCHAR
STARTCHAR F02D
ENCODING 61485
SWIDTH 960 0
DWIDTH 12 0
BBX 12 11 0 -1
BITMAP
1FE0
3FE0
3050
3FD0
7FE0
7FA0
7FA0
FFC0
FF40
8040
7F80
ENDCHAR
STARTCHAR F02E
ENCODING 61486
SWIDTH 720 0
DWIDTH 9 0
BBX 9 11 0 -1
BITMAP
FF80
FF80
FF80
FF80
FF80
FF80
FF80
FF80
F780
C380
8180
ENDCHAR
STARTCHAR F02F
ENCODING 61487
SWIDTH 960 0
DWIDTH 12 0
BBX 12 11 0 -1
BITMAP
3F00
2180
21C0
2040
6060
FFF0
FFF0
FFF0
E070
2040
3FC0
ENDCHAR
STARTCHAR F030
ENCODING 61488
SWIDTH 1040 0
DWIDTH 13 0
BBX 14 12 0 -1
BITMAP
0F80
1FC0
FFF8
FFF8
F87C
F77C
F7BC
F7BC
F77C
F8FC
FFF8
7FF8
ENDCHAR
STARTCHAR F031
ENCODING 61489
SWIDTH 960 0
DWIDTH 12 0
BBX 12 11 0 -1
BITMAP
0600
0600
0E00
0F00
1B00
1380
1F80
2180
21C0
60C0
F3F0
ENDCHAR
STARTCHAR F032
ENCODING 61490
SWIDTH 800 0
DWIDTH 10 0
BBX 10 11 0 -1
BITMAP
FF00
7380
7180
7180
7F00
7380
71C0
71C0
71C0
7180
FE00
ENDCHAR
STARTCHAR F033
ENCODING 61491
SWIDTH 560 0
DWIDTH 7 0
BBX 7 11 0 -1
BITMAP
3E
1C
18
18
18
38
38
30
30
70
F8
ENDCHAR
STARTCHAR F034
ENCODING 61492
SWIDTH 1040 0
DWIDTH 13 0
BBX 13 11 0 -1
BITMAP
FFB0
98B8
9890
1810
1810
1810
1810
1810
1810
1830
3E10
ENDCHAR
STARTCHAR F035
ENCODING 61493
SWIDTH 880 0
DWIDTH 11 0
BBX 11 12 0 -2
BITMAP
FFE0
8C20
8C20
0C00
0C00
0C00
0C00
0C00
1F00
4040
FFE0
4040
ENDCHAR
STARTCHAR F036
ENCODING 61494
SWIDTH 1040 0
DWIDTH 13 0
BBX 13 10 0 0
BITMAP
FF80
FF80
0000
FFF0
FFE0
FFC0
FFC0
0000
FFF8
FFF8
ENDCHAR
STARTCHAR F037
ENCODING 61495
SWIDTH 1040 0
DWIDTH 13 0
BBX 13 10 0 0
BITMAP
1F80
1F80
0000
7FF0
7FE0
1FC0
1FC0
0000
FFF8
FFF8
ENDCHAR
STARTCHAR F038
ENCODING 61496
SWIDTH 1040 0
DWIDTH 13 0
BBX 13 10 0 0
BITMAP
1FF8
1FF8
0000
7FF8
7FF0
1FF0
1FF8
0000
FFF8
FFF8
ENDCHAR
STARTCHAR F039
ENCODING 61497
SWIDTH 1040 0
DWIDTH 13 0
BBX 13 10 0 0
BITMAP
FFF8
FFF8
0000
FFF8
FFF0
FFF0
FFF8
0000
FFF8
FFF8
ENDCHAR
STARTCHAR F03A
ENCODING 61498
SWIDTH 1040 0
DWIDTH 13 0
BBX 13 10 0 0
BITMAP
DFF8
DFF8
0000
DFF8
DFF8
DFF8
DFF8
0000
DFF8
DFF8
ENDCHAR
STARTCHAR F03B
ENCODING 61499
SWIDTH 1040 0
DWIDTH 13 0
BBX 13 10 0 0
BITMAP
FFF8
FFF8
0000
6FF8
EFF8
EFF8
6FF8
0000
FFF8
FFF8
ENDCHAR
STARTCHAR F03C
ENCODING 61500
SWIDTH 1040 0
DWIDTH 13 0
BBX 13 10 0 0
BITMAP
FFF8
FFF8
0000
8FF8
CFF8
CFF8
8FF8
0000
FFF8
FFF8
ENDCHAR
STARTCHAR F03D
ENCODING 61501
SWIDTH 1040 0
DWIDTH 13 0
BBX 13 9 0 0
BITMAP
FF18
FFB8
FFF8
FFF8
FFF8
FFF8
FFB8
FF98
7F00
ENDCHAR
STARTCHAR F03E
ENCODING 61502
SWIDTH 1040 0
DWIDTH 13 0
BBX 14 11 0 -1
BITMAP
FFF8
800C
B00C
B88C
91CC
83EC
9FFC
BFFC
BFFC
800C
FFF8
ENDCHAR
STARTCHAR F040
ENCODING 61504
SWIDTH 880 0
DWIDTH 11 0
BBX 11 11 0 -1
BITMAP
0180
03C0
05E0
0EC0
1F00
3F00
7E00
FC00
B800
D000
E000
ENDCHAR
STARTCHAR F041
ENCODING 61505
SWIDTH 560 0
DWIDTH 7 0
BBX 7 11 0 -1
BITMAP
38
7E
C6
C6
C6
FE
7C
7C
38
38
10
ENDCHAR
STARTCHAR F042
ENCODING 61506
SWIDTH 880 0
DWIDTH 11 0
BBX 11 11 0 -1
BITMAP
1F00
3F80
67C0
C7C0
C7E0
C7E0
C7E0
C7C0
67C0
3F80
1E00
ENDCHAR
STARTCHAR F043
ENCODING 61507
SWIDTH 560 0
DWIDTH 7 0
BBX 7 11 0 0
BITMAP
10
10
38
38
7C
FE
FE
DE
DE
7E
38
ENDCHAR
STARTCHAR F044
ENCODING 61508
SWIDTH 1040 0
DWIDTH 13 0
BBX 12 10 0 0
BITMAP
7FB0
80B0
80D0
81E0
83C0
8780
8940
8E40
8040
7F80
ENDCHAR
STARTCHAR F045
ENCODING 61509
SWIDTH 960 0
DWIDTH 12 0
BBX 12 11 0 0
BITMAP
0080
70C0
9FE0
BFF0
BFE0
B0C0
B080
A040
A040
8040
7F80
ENDCHAR
STARTCHAR F046
ENCODING 61510
SWIDTH 960 0
DWIDTH 12 0
BBX 12 10 0 0
BITMAP
7FA0
8070
80E0
B1C0
BB80
BF40
9E40
8C40
8040
7F80
ENDCHAR
STARTCHAR F047
ENCODING 61511
SWIDTH 1040 0
DWIDTH 13 0
BBX 13 13 0 -2
BITMAP
0200
0700
0F80
0600
2620
7FF0
FFF8
6630
2620
0600
0F80
0700
0200
ENDCHAR
STARTCHAR F048
ENCODING 61512
SWIDTH 560 0
DWIDTH 7 0
BBX 7 11 0 -1
BITMAP
C2
C6
CE
DE
FE
FE
FE
DE
CE
C6
C2
ENDCHAR
STARTCHAR F049
ENCODING 61513
SWIDTH 1040 0
DWIDTH 13 0
BBX 13 11 0 -1
BITMAP
C208
C618
CE38
DE78
FEF8
FFF8
FEF8
DE78
CE38
C618
C208
ENDCHAR
STARTCHAR F04A
ENCODING 61514
SWIDTH 960 0
DWIDTH 12 0
BBX 11 11 1 -1
BITMAP
0820
1860
38E0
79E0
FBE0
FFE0
7BE0
39E0
18E0
0860
0020
ENDCHAR
STARTCHAR F04B
ENCODING 61515
SWIDTH 800 0
DWIDTH 10 0
BBX 10 11 0 -1
BITMAP
8000
E000
F800
FE00
FF80
FFC0
FF00
FE00
F800
E000
8000
ENDCHAR
STARTCHAR F04C
ENCODING 61516
SWIDTH 880 0
DWIDTH 11 0
BBX 11 11 0 -1
BITMAP
FBE0
FBE0
FBE0
FBE0
FBE0
FBE0
FBE0
FBE0
FBE0
FBE0
FBE0
ENDCHAR
STARTCHAR F04D
ENCODING 61517
SWIDTH 880 0
DWIDTH 11 0
BBX 11 11 0 -1
BITMAP
FFE0
FFE0
FFE0
FFE0
FFE0
FFE0
FFE0
FFE0
FFE0
FFE0
FFE0
ENDCHAR
STARTCHAR F04E
ENCODING 61518
SWIDTH 960 0
DWIDTH 12 0
BBX 11 11 0 -1
BITMAP
8400
C600
E700
F780
FFC0
FFE0
FFC0
F780
E700
C600
8400
ENDCHAR
STARTCHAR F050
ENCODING 61520
SWIDTH 1040 0
DWIDTH 13 0
BBX 13 11 0 -1
BITMAP
8418
C618
E718
F798
FFD8
FFF8
FFD8
F798
E718
C618
8418
ENDCHAR
STARTCHAR F051
ENCODING 61521
SWIDTH 560 0
DWIDTH 7 0
BBX 7 11 0 -1
BITMAP
86
C6
E6
F6
FE
FE
FE
F6
E6
C6
86
ENDCHAR
STARTCHAR F052
ENCODING 61522
SWIDTH 880 0
DWIDTH 11 0
BBX 11 9 0 0
BITMAP
0C00
1E00
3F00
7F80
FFC0
0000
FFE0
FFE0
FFE0
ENDCHAR
STARTCHAR F053
ENCODING 61523
SWIDTH 720 0
DWIDTH 9 0
BBX 7 12 1 -1
BITMAP
04
0E
1E
3C
78
F0
F0
78
3C
1E
0E
04
ENDCHAR
STARTCHAR F054
ENCODING 61524
SWIDTH 720 0
DWIDTH 9 0
BBX 7 12 1 -1
BITMAP
40
E0
F0
78
3C
1E
1E
3C
78
F0
E0
40
ENDCHAR
STARTCHAR F055
ENCODING 61525
SWIDTH 880 0
DWIDTH 11 0
BBX 11 11 0 -1
BITMAP
1F00
3F80
7BC0
FBC0
FBE0
C0E0
FBE0
FBC0
7FC0
3F80
1E00
ENDCHAR
STARTCHAR F056
ENCODING 61526
SWIDTH 880 0
DWIDTH 11 0
BBX 11 11 0 -1
BITMAP
1F00
3F80
7FC0
FFC0
FFE0
C0E0
FFE0
FFC0
7FC0
3F80
1E00
ENDCHAR
STARTCHAR F057
ENCODING 61527
SWIDTH 880 0
DWIDTH 11 0
BBX 11 11 0 -1
BITMAP
1F00
3F80
7FC0
ECC0
E1E0
F1E0
E0E0
EDC0
7FC0
3F80
1E00
ENDCHAR
STARTCHAR F058
ENCODING 61528
SWIDTH 880 0
DWIDTH 11 0
BBX 11 11 0 -1
BITMAP
1F00
3F80
7FC0
FFC0
FE60
CCE0
E1E0
F3C0
7FC0
3F80
1E00
ENDCHAR
STARTCHAR F059
ENCODING 61529
SWIDTH 880 0
DWIDTH 11 0
BBX 11 11 0 -1
BITMAP
1F00
3F80
71C0
E4C0
FCE0
F9E0
FBE0
FFC0
7BC0
3F80
1E00
ENDCHAR
STARTCHAR F05A
ENCODING 61530
SWIDTH 880 0
DWIDTH 11 0
BBX 11 11 0 -1
BITMAP
1F00
3B80
7BC0
FFC0
F3E0
FBE0
FBE0
FBC0
71C0
3F80
1E00
ENDCHAR
STARTCHAR F05B
ENCODING 61531
SWIDTH 880 0
DWIDTH 11 0
BBX 11 11 0 -1
BITMAP
0C00
0E00
3F00
2C80
E1E0
F1E0
6080
2C80
1F00
0C00
0C00
ENDCHAR
STARTCHAR F05C
ENCODING 61532
SWIDTH 880 0
DWIDTH 11 0
BBX 11 11 0 -1
BITMAP
1F00
3F80
60C0
DAC0
DF60
CE60
DF60
CAC0
61C0
3F80
1E00
ENDCHAR
STARTCHAR F05D
ENCODING 61533
SWIDTH 880 0
DWIDTH 11 0
BBX 11 11 0 -1
BITMAP
1F00
3F80
60C0
C1C0
D360
FF60
DE60
CCC0
61C0
3F80
1E00
ENDCHAR
STARTCHAR F05E
ENCODING 61534
SWIDTH 880 0
DWIDTH 11 0
BBX 11 11 0 -1
BITMAP
1F00
3F80
61C0
C3C0
C760
CE60
DC60
F8C0
71C0
3F80
1E00
ENDCHAR
STARTCHAR F060
ENCODING 61536
SWIDTH 880 0
DWIDTH 11 0
BBX 11 11 0 -1
BITMAP
0400
0E00
1E00
3C00
7FC0
FFE0
7FE0
3800
1C00
0E00
0600
ENDCHAR
STARTCHAR F061
ENCODING 61537
SWIDTH 880 0
DWIDTH 11 0
BBX 10 11 0 -1
BITMAP
0800
1C00
0E00
0700
FF80
FFC0
FFC0
0780
0F00
1E00
1C00
ENDCHAR
STARTCHAR F062
ENCODING 61538
SWIDTH 960 0
DWIDTH 12 0
BBX 11 11 0 -1
BITMAP
0400
0E00
1F00
3F80
7FC0
FFE0
EEE0
0E00
0E00
0E00
0600
ENDCHAR
STARTCHAR F063
ENCODING 61539
SWIDTH 960 0
DWIDTH 12 0
BBX 11 10 0 -1
BITMAP
0E00
0E00
0E00
4E40
EEE0
FFE0
7FC0
3F80
1F00
0E00
ENDCHAR
STARTCHAR F064
ENCODING 61540
SWIDTH 1040 0
DWIDTH 13 0
BBX 13 12 0 -1
BITMAP
0080
00C0
00E0
3FF0
7FF8
FFF0
FFE0
E0C0
C080
C000
C000
4000
ENDCHAR
STARTCHAR F065
ENCODING 61541
SWIDTH 880 0
DWIDTH 11 0
BBX 11 11 0 -1
BITMAP
01E0
01E0
01E0
03E0
0700
0800
1800
F800
F000
F000
F000
ENDCHAR
STARTCHAR F066
ENCODING 61542
SWIDTH 880 0
DWIDTH 11 0
BBX 11 11 0 -1
BITMAP
0040
04E0
07C0
0780
0780
7B80
3800
3800
7800
E000
4000
ENDCHAR
STARTCHAR F067
ENCODING 61543
SWIDTH 800 0
DWIDTH 10 0
BBX 10 10 0 0
BITMAP
1C00
1C00
1C00
7C00
FFC0
FFC0
1C00
1C00
1C00
0C00
ENDCHAR
STARTCHAR F068
ENCODING 61544
SWIDTH 800 0
DWIDTH 10 0
BBX 10 3 0 4
BITMAP
7F80
FFC0
FFC0
ENDCHAR
STARTCHAR F069
ENCODING 61545
SWIDTH 960 0
DWIDTH 12 0
BBX 10 11 1 -1
BITMAP
1C00
1C00
FD80
FFC0
FF80
3F00
FFC0
FFC0
DD80
1C00
0C00
ENDCHAR
STARTCHAR F06A
ENCODING 61546
SWIDTH 880 0
DWIDTH 11 0
BBX 11 11 0 -1
BITMAP
1F00
3F80
73C0
FBC0
FBE0
FBE0
FFE0
FBC0
7BC0
3F80
1E00
ENDCHAR
STARTCHAR F06B
ENCODING 61547
SWIDTH 880 0
DWIDTH 11 0
BBX 11 10 0 0
BITMAP
1100
3B80
2C80
FFC0
F3E0
F3E0
73C0
73C0
73C0
7FC0
ENDCHAR
STARTCHAR F06C
ENCODING 61548
SWIDTH 1040 0
DWIDTH 13 0
BBX 13 10 0 0
BITMAP
0030
07F0
1FF8
3FF8
79F0
77F0
6FE0
7FC0
FF80
C000
ENDCHAR
STARTCHAR F06D
ENCODING 61549
SWIDTH 800 0
DWIDTH 10 0
BBX 10 13 0 -2
BITMAP
0800
0600
0700
0F00
3F00
3F00
3E00
3C00
3800
1800
0800
0000
FFC0
ENDCHAR
STARTCHAR F06E
ENCODING 61550
SWIDTH 1040 0
DWIDTH 13 0
BBX 13 8 0 0
BITMAP
1F80
3BE0
57B0
9F98
DF90
6F30
30E0
0F80
ENDCHAR
STARTCHAR F070
ENCODING 61552
SWIDTH 1040 0
DWIDTH 13 0
BBX 13 9 0 -1
BITMAP
0080
1F80
3B20
5730
9E98
DE90
4D30
3CE0
1B80
ENDCHAR
STARTCHAR F071
ENCODING 61553
SWIDTH 1040 0
DWIDTH 13 0
BBX 13 12 0 -1
BITMAP
0600
0700
0F00
0F80
1980
19C0
39C0
3FE0
79E0
F9F0
FFF8
FFF0
ENDCHAR
STARTCHAR F072
ENCODING 61554
SWIDTH 800 0
DWIDTH 10 0
BBX 10 10 0 0
BITMAP
00C0
71C0
7F80
1F00
0F00
1F00
FB80
7380
3180
1000
ENDCHAR
STARTCHAR F073
ENCODING 61555
SWIDTH 960 0
DWIDTH 12 0
BBX 12 13 0 -2
BITMAP
31C0
3940
FF70
FFF0
FFF0
A490
FFF0
A490
A490
FFF0
A490
A490
FFE0
ENDCHAR
STARTCHAR F074
ENCODING 61556
SWIDTH 1040 0
DWIDTH 13 0
BBX 12 10 0 0
BITMAP
0020
F3F0
FFF0
1E20
0C00
0C00
1A20
FFF0
F3F0
0020
ENDCHAR
STARTCHAR F075
ENCODING 61557
SWIDTH 1040 0
DWIDTH 13 0
BBX 13 11 0 -2
BITMAP
1FC0
7FE0
FFF0
FFF0
FFF8
FFF0
7FF0
7FE0
3F80
7800
6000
ENDCHAR
STARTCHAR F076
ENCODING 61558
SWIDTH 880 0
DWIDTH 11 0
BBX 11 11 0 -1
BITMAP
F1E0
F1E0
F1E0
F1E0
E1E0
F1E0
F1E0
FFE0
7FC0
7F80
1F00
ENDCHAR
STARTCHAR F077
ENCODING 61559
SWIDTH 1040 0
DWIDTH 13 0
BBX 11 8 1 0
BITMAP
0400
0E00
1F00
3F80
7BC0
F1E0
E0E0
4040
ENDCHAR
STARTCHAR F078
ENCODING 61560
SWIDTH 1040 0
DWIDTH 13 0
BBX 11 7 1 0
BITMAP
C0C0
E1E0
F3C0
7F80
3F00
1E00
0C00
ENDCHAR
STARTCHAR F079
ENCODING 61561
SWIDTH 1040 0
DWIDTH 13 0
BBX 13 8 0 0
BITMAP
37F0
77F0
F830
F830
30F8
30F8
3F70
3FA0
ENDCHAR
STARTCHAR F07A
ENCODING 61562
SWIDTH 960 0
DWIDTH 12 0
BBX 12 10 0 -1
BITMAP
E000
3FF0
3FF0
3FF0
1FF0
1FE0
1000
1FE0
1060
1060
ENDCHAR
STARTCHAR F07B
ENCODING 61563
SWIDTH 960 0
DWIDTH 12 0
BBX 12 10 0 0
BITMAP
F800
F800
FFE0
FFF0
FFF0
FFF0
FFF0
FFF0
FFF0
FFE0
ENDCHAR
STARTCHAR F07C
ENCODING 61564
SWIDTH 1040 0
DWIDTH 13 0
BBX 13 10 0 0
BITMAP
F800
F800
FFE0
FFE0
FFE0
EFF8
DFF8
BFF0
7FE0
FFC0
ENDCHAR
STARTCHAR F07D
ENCODING 61565
SWIDTH 400 0
DWIDTH 5 0
BBX 5 13 0 -2
BITMAP
20
70
F8
30
30
30
30
30
30
30
F8
70
20
ENDCHAR
STARTCHAR F07E
ENCODING 61566
SWIDTH 1040 0
DWIDTH 13 0
BBX 13 5 0 2
BITMAP
2020
7FF0
FFF8
6030
2020
ENDCHAR
STARTCHAR F080
ENCODING 61568
SWIDTH 1120 0
DWIDTH 14 0
BBX 14 11 0 -1
BITMAP
8000
8018
8618
86D8
86D8
9ED8
9ED8
9ED8
9ED8
8000
FFFC
ENDCHAR
STARTCHAR F081
ENCODING 61569
SWIDTH 880 0
DWIDTH 11 0
BBX 11 11 0 -1
BITMAP
7FC0
FFE0
FFE0
DCE0
C8E0
C0E0
E1E0
F1E0
FFE0
FFE0
7FC0
ENDCHAR
STARTCHAR F082
ENCODING 61570
SWIDTH 880 0
DWIDTH 11 0
BBX 11 11 0 -1
BITMAP
7FC0
FFE0
FC60
FDE0
FDE0
F060
FDE0
FDE0
FDE0
FDE0
7DC0
ENDCHAR
STARTCHAR F083
ENCODING 61571
SWIDTH 1040 0
DWIDTH 13 0
BBX 13 11 0 -1
BITMAP
FFF0
FC18
8018
FFF8
F7F8
FB78
FF78
F6F8
FFF8
8018
FFF0
ENDCHAR
STARTCHAR F084
ENCODING 61572
SWIDTH 1040 0
DWIDTH 13 0
BBX 12 11 0 -1
BITMAP
1C00
7E00
E200
C600
8E00
DE40
7F60
03F0
01C0
00E0
0060
ENDCHAR
STARTCHAR F085
ENCODING 61573
SWIDTH 1040 0
DWIDTH 13 0
BBX 14 13 0 -2
BITMAP
0050
0070
1CDC
7FD8
7F78
E380
E380
6350
7F70
7FDC
1CD8
0070
0050
ENDCHAR
STARTCHAR F086
ENCODING 61574
SWIDTH 1040 0
DWIDTH 13 0
BBX 13 10 0 -1
BITMAP
3F00
7F80
FFE0
FFD0
FFF0
7FB8
3F70
61F0
07E0
0030
ENDCHAR
STARTCHAR F087
ENCODING 61575
SWIDTH 880 0
DWIDTH 11 0
BBX 11 12 0 -1
BITMAP
0600
0500
0D00
0900
73C0
E020
E060
E060
E040
A040
F8C0
0F80
ENDCHAR
STARTCHAR F088
ENCODING 61576
SWIDTH 880 0
DWIDTH 11 0
BBX 11 12 0 -2
BITMAP
0F80
F840
A040
E040
E060
E060
F020
13C0
0900
0500
0500
0600
ENDCHAR
STARTCHAR F089
ENCODING 61577
SWIDTH 480 0
DWIDTH 6 0
BBX 6 12 0 -1
BITMAP
04
04
0C
0C
FC
FC
3C
1C
3C
3C
38
20
ENDCHAR
STARTCHAR F08A
ENCODING 61578
SWIDTH 1040 0
DWIDTH 13 0
BBX 13 11 0 -1
BITMAP
79E0
C710
8218
8018
8010
4030
6060
30C0
0980
0700
0200
ENDCHAR
STARTCHAR F08B
ENCODING 61579
SWIDTH 960 0
DWIDTH 12 0
BBX 11 9 0 0
BITMAP
FA00
8300
9F80
9FC0
9FE0
9FC0
8380
8300
7A00
ENDCHAR
STARTCHAR F08C
ENCODING 61580
SWIDTH 880 0
DWIDTH 11 0
BBX 11 11 0 -1
BITMAP
7FC0
FFE0
DFE0
FFE0
D0E0
D260
D360
D360
D360
FFE0
7FC0
ENDCHAR
STARTCHAR F08D
ENCODING 61581
SWIDTH 640 0
DWIDTH 8 0
BBX 8 11 0 -2
BITMAP
7E
7E
3C
3C
3C
7E
FF
FF
18
18
10
ENDCHAR
STARTCHAR F08E
ENCODING 61582
SWIDTH 1040 0
DWIDTH 13 0
BBX 13 11 0 0
BITMAP
00F8
7E78
8078
80D8
8180
8300
8640
8440
8040
8040
7F80
ENDCHAR
STARTCHAR F090
ENCODING 61584
SWIDTH 880 0
DWIDTH 11 0
BBX 11 9 0 0
BITMAP
1BC0
1C20
FE20
FF20
FF20
FF20
1E20
1C60
0BC0
ENDCHAR
STARTCHAR F091
ENCODING 61585
SWIDTH 960 0
DWIDTH 12 0
BBX 12 11 0 -1
BITMAP
1F80
1F80
FFF0
9F90
DFA0
7FC0
0F00
0600
0600
1F80
1F80
ENDCHAR
STARTCHAR F092
ENCODING 61586
SWIDTH 880 0
DWIDTH 11 0
BBX 11 11 0 -1
BITMAP
7FC0
FFE0
FFE0
E0E0
C060
C060
C0E0
F1E0
F3E0
F1E0
71C0
ENDCHAR
STARTCHAR F093
ENCODING 61587
SWIDTH 960 0
DWIDTH 12 0
BBX 12 11 0 0
BITMAP
0600
0F00
1F80
3F80
0E00
0E00
0E00
F0F0
FFF0
FF50
FFF0
ENDCHAR
STARTCHAR F094
ENCODING 61588
SWIDTH 880 0
DWIDTH 11 0
BBX 11 11 0 -1
BITMAP
0FC0
3060
6040
4020
8020
8020
8060
8040
80C0
8180
FE00
ENDCHAR
STARTCHAR F095
ENCODING 61589
SWIDTH 800 0
DWIDTH 10 0
BBX 10 10 0 0
BITMAP
6000
E000
F000
E000
E000
6000
3100
1FC0
0FC0
0380
ENDCHAR
STARTCHAR F096
ENCODING 61590
SWIDTH 800 0
DWIDTH 10 0
BBX 10 10 0 0
BITMAP
7F80
8040
8040
8040
8040
8040
8040
8040
8040
7F80
ENDCHAR
STARTCHAR F097
ENCODING 61591
SWIDTH 720 0
DWIDTH 9 0
BBX 9 11 0 -1
BITMAP
FF80
8080
8080
8080
8080
8080
8880
9C80
B680
C380
8180
ENDCHAR
STARTCHAR F098
ENCODING 61592
SWIDTH 880 0
DWIDTH 11 0
BBX 11 11 0 -1
BITMAP
7FC0
FFE0
CFE0
CFE0
DFE0
EFE0
E7E0
F060
FCE0
FFE0
7FC0
ENDCHAR
STARTCHAR F099
ENCODING 61593
SWIDTH 960 0
DWIDTH 12 0
BBX 10 9 1 0
BITMAP
07C0
87C0
F780
FF80
FF80
FF80
7F00
7E00
F800
ENDCHAR
STARTCHAR F09A
ENCODING 61594
SWIDTH 560 0
DWIDTH 7 0
BBX 6 12 1 -1
BITMAP
3C
3C
70
70
FC
FC
F8
70
70
70
70
70
ENDCHAR
STARTCHAR F09B
ENCODING 61595
SWIDTH 880 0
DWIDTH 11 0
BBX 11 11 0 -1
BITMAP
1F00
3F80
7FC0
E0C0
C060
C060
C0E0
F1C0
53C0
3180
1000
ENDCHAR
STARTCHAR F09C
ENCODING 61596
SWIDTH 960 0
DWIDTH 12 0
BBX 12 10 0 0
BITMAP
01C0
03E0
0630
0630
FF30
FF00
FF00
FF00
FF00
FF00
ENDCHAR
STARTCHAR F09D
ENCODING 61597
SWIDTH 1040 0
DWIDTH 13 0
BBX 14 11 0 -1
BITMAP
FFF8
800C
800C
FFFC
FFFC
FFFC
800C
800C
BE0C
800C
FFF8
ENDCHAR
STARTCHAR F09E
ENCODING 61598
SWIDTH 800 0
DWIDTH 10 0
BBX 10 10 0 0
BITMAP
E000
F800
1E00
0700
E300
FB80
1980
CDC0
ECC0
CCC0
ENDCHAR
STARTCHAR F0A0
ENCODING 61600
SWIDTH 880 0
DWIDTH 11 0
BBX 11 9 0 0
BITMAP
7F80
40C0
4040
C040
FFE0
8020
82A0
8020
FFE0
ENDCHAR
STARTCHAR F0A1
ENCODING 61601
SWIDTH 1040 0
DWIDTH 13 0
BBX 13 11 0 -1
BITMAP
0030
00F0
0390
FE10
F818
FC10
3F90
30D0
3030
3800
3800
ENDCHAR
STARTCHAR F0A2
ENCODING 61602
SWIDTH 1040 0
DWIDTH 13 0
BBX 12 13 0 -2
BITMAP
0200
0F00
1880
1040
1040
3040
2040
2040
2020
4030
FFF0
0F00
0600
ENDCHAR
STARTCHAR F0A3
ENCODING 61603
SWIDTH 880 0
DWIDTH 11 0
BBX 11 11 0 -1
BITMAP
1A00
7F80
7F80
FFC0
FFE0
7FC0
FFE0
7FC0
7F80
5E80
1A00
ENDCHAR
STARTCHAR F0A4
ENCODING 61604
SWIDTH 1040 0
DWIDTH 13 0
BBX 13 11 0 -1
BITMAP
0700
0500
0900
79F0
F018
E0F0
E0C0
E080
A080
F880
0700
ENDCHAR
STARTCHAR F0A5
ENCODING 61605
SWIDTH 1040 0
DWIDTH 13 0
BBX 13 11 0 -1
BITMAP
0600
0900
0900
FCC0
8078
F038
1038
1038
1838
09F0
0F00
ENDCHAR
STARTCHAR F0A6
ENCODING 61606
SWIDTH 880 0
DWIDTH 11 0
BBX 11 13 0 -2
BITMAP
1C00
1400
1400
1700
70C0
B020
8020
6060
3040
1840
1FC0
1F40
0FC0
ENDCHAR
STARTCHAR F0A7
ENCODING 61607
SWIDTH 880 0
DWIDTH 11 0
BBX 11 13 0 -2
BITMAP
0FC0
1F40
1FC0
1840
3040
E060
8020
F020
55C0
1700
1400
1400
0800
ENDCHAR
STARTCHAR F0A8
ENCODING 61608
SWIDTH 880 0
DWIDTH 11 0
BBX 11 11 0 -1
BITMAP
1F00
3F80
7BC0
F3C0
E7E0
C060
E7E0
F3C0
7BC0
3F80
1E00
ENDCHAR
STARTCHAR F0A9
ENCODING 61609
SWIDTH 880 0
DWIDTH 11 0
BBX 11 11 0 -1
BITMAP
1F00
3F80
7BC0
F9C0
FCE0
C060
FCE0
F9C0
7BC0
3F80
1E00
ENDCHAR
STARTCHAR F0AA
ENCODING 61610
SWIDTH 880 0
DWIDTH 11 0
BBX 11 11 0 -1
BITMAP
1F00
3F80
7BC0
F1C0
E0E0
CA60
FBE0
FBC0
7BC0
3F80
1E00
ENDCHAR
STARTCHAR F0AB
ENCODING 61611
SWIDTH 880 0
DWIDTH 11 0
BBX 11 11 0 -1
BITMAP
1F00
3F80
7BC0
FBC0
FBE0
CA60
E0E0
F1C0
7BC0
3F80
1E00
ENDCHAR
STARTCHAR F0AC
ENCODING 61612
SWIDTH 880 0
DWIDTH 11 0
BBX 11 11 0 -1
BITMAP
1F00
3780
47C0
C1C0
C1E0
E3E0
FFE0
FFC0
7EC0
3D80
1E00
ENDCHAR
STARTCHAR F0AD
ENCODING 61613
SWIDTH 960 0
DWIDTH 12 0
BBX 12 12 0 -2
BITMAP
01C0
0380
0700
0710
03E0
0FE0
1E00
3C00
7800
D000
E000
4000
ENDCHAR
STARTCHAR F0AE
ENCODING 61614
SWIDTH 1040 0
DWIDTH 13 0
BBX 13 10 0 0
BITMAP
FFF8
FF98
FFF8
FFF0
FFF8
FFF8
0000
FFF8
FE18
FFF8
ENDCHAR
STARTCHAR F0B0
ENCODING 61616
SWIDTH 800 0
DWIDTH 10 0
BBX 10 10 0 -1
BITMAP
FFC0
7F80
3F00
1E00
1C00
1C00
1C00
1C00
0C00
0400
ENDCHAR
STARTCHAR F0B1
ENCODING 61617
SWIDTH 1040 0
DWIDTH 13 0
BBX 13 11 0 0
BITMAP
0F80
1880
FFF0
FFF8
FFF8
FFF8
FEF8
F8F8
FFF8
FFF8
FFF0
ENDCHAR
STARTCHAR F0B2
ENCODING 61618
SWIDTH 880 0
DWIDTH 11 0
BBX 11 11 0 -1
BITMAP
F1E0
E1E0
F1E0
BBE0
1F00
0E00
1F00
FBE0
F1E0
F1E0
F1E0
ENDCHAR
STARTCHAR F0C0
ENCODING 61632
SWIDTH 1040 0
DWIDTH 13 0
BBX 13 13 0 -2
BITMAP
7030
7878
7778
3FB0
FFB8
FFB8
F7F8
1CE0
3FE0
3FF0
3FF0
3FF0
1FE0
ENDCHAR
STARTCHAR F0C1
ENCODING 61633
SWIDTH 960 0
DWIDTH 12 0
BBX 12 12 0 -1
BITMAP
3000
7800
CC00
C600
FE00
7D80
3FC0
0760
0630
0760
03E0
01C0
ENDCHAR
STARTCHAR F0C2
ENCODING 61634
SWIDTH 1040 0
DWIDTH 13 0
BBX 13 10 0 0
BITMAP
1E00
3F00
3FE0
3FF0
7FF0
FFF8
FFF8
FFF8
FFF8
7FF0
ENDCHAR
STARTCHAR F0C3
ENCODING 61635
SWIDTH 960 0
DWIDTH 12 0
BBX 10 11 1 -1
BITMAP
3E00
1400
1400
1400
1600
3200
2100
7F80
FF80
FFC0
FFC0
ENDCHAR
STARTCHAR F0C4
ENCODING 61636
SWIDTH 1040 0
DWIDTH 13 0
BBX 13 10 0 -1
BITMAP
F000
9838
C8D0
7F20
1EC0
3B40
FD20
88D0
F830
7000
ENDCHAR
STARTCHAR F0C5
ENCODING 61637
SWIDTH 1040 0
DWIDTH 13 0
BBX 13 13 0 -2
BITMAP
1F00
3900
7900
D9F8
F398
8698
8798
8818
8818
F818
0818
0818
07F0
ENDCHAR
STARTCHAR F0C6
ENCODING 61638
SWIDTH 800 0
DWIDTH 10 0
BBX 10 11 0 -1
BITMAP
7000
C800
8400
9E00
5700
7B80
3D80
1EC0
0C40
0640
0180
ENDCHAR
STARTCHAR F0C7
ENCODING 61639
SWIDTH 880 0
DWIDTH 11 0
BBX 11 11 0 -1
BITMAP
FF00
BA80
BA40
BE20
BE20
8020
BFA0
A0A0
A0A0
A0A0
FFE0
ENDCHAR
STARTCHAR F0C8
ENCODING 61640
SWIDTH 880 0
DWIDTH 11 0
BBX 11 11 0 -1
BITMAP
7FC0
FFE0
FFE0
FFE0
FFE0
FFE0
FFE0
FFE0
FFE0
FFE0
7FC0
ENDCHAR
STARTCHAR F0C9
ENCODING 61641
SWIDTH 880 0
DWIDTH 11 0
BBX 11 9 0 0
BITMAP
FFE0
FFE0
0000
FFE0
FFE0
0000
0000
FFE0
FFE0
ENDCHAR
STARTCHAR F0CA
ENCODING 61642
SWIDTH 1040 0
DWIDTH 13 0
BBX 13 10 0 0
BITMAP
4000
FFF8
FFF8
0000
CFF0
FFF8
C000
0000
FFF8
FFF8
ENDCHAR
STARTCHAR F0CB
ENCODING 61643
SWIDTH 1040 0
DWIDTH 13 0
BBX 13 13 0 -2
BITMAP
4000
C000
5FF8
FFF8
0000
EFF0
5FF8
E000
0000
FFF8
5FF8
A000
C000
ENDCHAR
STARTCHAR F0CC
ENCODING 61644
SWIDTH 1040 0
DWIDTH 13 0
BBX 13 11 0 -1
BITMAP
0F80
1980
1080
1800
1F00
FFF8
0000
01C0
10C0
1880
0F00
ENDCHAR
STARTCHAR F0CD
ENCODING 61645
SWIDTH 880 0
DWIDTH 11 0
BBX 11 11 0 -1
BITMAP
F9E0
70C0
7040
7040
7040
7040
7040
3080
1F00
0000
FFE0
ENDCHAR
STARTCHAR F0CE
ENCODING 61646
SWIDTH 960 0
DWIDTH 12 0
BBX 12 10 0 0
BITMAP
FFE0
FFF0
9910
FFD0
FFF0
9910
FFF0
9910
9910
FFE0
ENDCHAR
STARTCHAR F0D0
ENCODING 61648
SWIDTH 960 0
DWIDTH 12 0
BBX 12 11 0 -1
BITMAP
0040
52E0
3DA0
1340
0780
0F30
1E00
3C00
7800
F000
6000
ENDCHAR
STARTCHAR F0D1
ENCODING 61649
SWIDTH 1040 0
DWIDTH 13 0
BBX 13 10 0 -1
BITMAP
0FF8
0FF8
3FF8
6FF8
7FF8
7FF8
7FF8
EFB8
28B0
3860
ENDCHAR
STARTCHAR F0D2
ENCODING 61650
SWIDTH 880 0
DWIDTH 11 0
BBX 11 11 0 -1
BITMAP
1F00
3F80
61C0
DEC0
D760
D760
D660
F6C0
7FC0
2F80
0E00
ENDCHAR
STARTCHAR F0D3
ENCODING 61651
SWIDTH 880 0
DWIDTH 11 0
BBX 11 11 0 -1
BITMAP
7FC0
FFE0
E0E0
DEE0
D760
D760
D660
F6E0
FFE0
EFE0
6FC0
ENDCHAR
STARTCHAR F0D4
ENCODING 61652
SWIDTH 880 0
DWIDTH 11 0
BBX 11 11 0 -1
BITMAP
7FC0
FFE0
FFE0
C7E0
BF60
B260
BBE0
C7E0
FFE0
FFE0
7FC0
ENDCHAR
STARTCHAR F0D5
ENCODING 61653
SWIDTH 1280 0
DWIDTH 16 0
BBX 16 11 0 -1
BITMAP
1E00
3F80
7300
E006
C006
C7CF
C7C6
E1C6
7F80
3F00
0C00
ENDCHAR
STARTCHAR F0D6
ENCODING 61654
SWIDTH 1040 0
DWIDTH 13 0
BBX 14 9 0 0
BITMAP
FFFC
E21C
C70C
8D8C
8D8C
858C
C71C
E01C
FFFC
ENDCHAR
STARTCHAR F0D7
ENCODING 61655
SWIDTH 560 0
DWIDTH 7 0
BBX 7 5 0 2
BITMAP
FE
FE
7C
38
10
ENDCHAR
STARTCHAR F0D8
ENCODING 61656
SWIDTH 560 0
DWIDTH 7 0
BBX 7 4 0 2
BITMAP
10
38
7C
FE
ENDCHAR
STARTCHAR F0D9
ENCODING 61657
SWIDTH 320 0
DWIDTH 4 0
BBX 5 7 0 1
BITMAP
18
38
78
F8
78
38
18
ENDCHAR
STARTCHAR F0DA
ENCODING 61658
SWIDTH 320 0
DWIDTH 4 0
BBX 4 7 0 1
BITMAP
80
C0
E0
F0
E0
C0
80
ENDCHAR
STARTCHAR F0DB
ENCODING 61659
SWIDTH 960 0
DWIDTH 12 0
BBX 12 11 0 -1
BITMAP
FFE0
FFF0
8410
8410
8410
8410
8410
8410
8410
8410
FFE0
ENDCHAR
STARTCHAR F0DC
ENCODING 61660
SWIDTH 560 0
DWIDTH 7 0
BBX 7 10 0 0
BITMAP
10
38
7C
FE
FE
00
FE
FE
7C
38
ENDCHAR
STARTCHAR F0DD
ENCODING 61661
SWIDTH 560 0
DWIDTH 7 0
BBX 7 4 0 0
BITMAP
FE
FE
7C
38
ENDCHAR
STARTCHAR F0DE
ENCODING 61662
SWIDTH 560 0
DWIDTH 7 0
BBX 7 5 0 5
BITMAP
10
38
7C
FE
FE
ENDCHAR
STARTCHAR F0E0
ENCODING 61664
SWIDTH 1040 0
DWIDTH 13 0
BBX 13 10 0 -1
BITMAP
FFF0
FFF8
FFF0
BFE8
DFB8
F778
F8F8
FFF8
FFF8
FFF0
ENDCHAR
STARTCHAR F0E1
ENCODING 61665
SWIDTH 880 0
DWIDTH 11 0
BBX 11 11 0 -1
BITMAP
C000
E000
4000
ED80
EFC0
EEE0
ECE0
ECE0
ECE0
ECE0
ECE0
ENDCHAR
STARTCHAR F0E2
ENCODING 61666
SWIDTH 880 0
DWIDTH 11 0
BBX 11 11 0 -1
BITMAP
9F00
FF80
E1C0
F0C0
F060
0060
0060
20C0
71C0
3F80
1E00
ENDCHAR
STARTCHAR F0E3
ENCODING 61667
SWIDTH 1040 0
DWIDTH 13 0
BBX 12 13 0 -2
BITMAP
0400
0E00
0F00
1F80
3F80
FE00
7E00
3B80
19E0
01F0
00F0
0070
0020
ENDCHAR
STARTCHAR F0E4
ENCODING 61668
SWIDTH 1040 0
DWIDTH 13 0
BBX 13 10 0 -1
BITMAP
1F80
3DE0
6FA0
CEB0
FFF0
BDD8
BDD8
F9F0
F9F0
7FF0
ENDCHAR
STARTCHAR F0E5
ENCODING 61669
SWIDTH 1040 0
DWIDTH 13 0
BBX 13 11 0 -2
BITMAP
1FC0
6060
C010
8010
8018
8010
4030
7060
2F80
7800
6000
ENDCHAR
STARTCHAR F0E6
ENCODING 61670
SWIDTH 1040 0
DWIDTH 13 0
BBX 13 10 0 -1
BITMAP
3F00
4180
80E0
8050
80F0
41B8
3F70
61F0
07E0
0030
ENDCHAR
STARTCHAR F0E7
ENCODING 61671
SWIDTH 480 0
DWIDTH 6 0
BBX 6 12 0 -2
BITMAP
70
70
70
FC
FC
F8
18
10
30
30
20
20
ENDCHAR
STARTCHAR F0E8
ENCODING 61672
SWIDTH 1040 0
DWIDTH 13 0
BBX 13 11 0 -1
BITMAP
0F00
0F00
0F00
0700
0200
7FE0
4220
FF70
FF78
FF78
FF70
ENDCHAR
STARTCHAR F0E9
ENCODING 61673
SWIDTH 960 0
DWIDTH 12 0
BBX 12 11 0 0
BITMAP
0400
1F80
7FC0
7FE0
FFF0
1500
0400
0400
0400
1400
1C00
ENDCHAR
STARTCHAR F0EA
ENCODING 61674
SWIDTH 1040 0
DWIDTH 13 0
BBX 13 13 0 -2
BITMAP
FF80
C180
FF80
FFC0
F8E0
F8B0
F8F0
F818
F818
F818
F818
0818
07F0
ENDCHAR
STARTCHAR F0EB
ENCODING 61675
SWIDTH 560 0
DWIDTH 7 0
BBX 7 11 0 -1
BITMAP
3C
C6
9A
82
C2
44
2C
7C
7C
38
10
ENDCHAR
STARTCHAR F0EC
ENCODING 61676
SWIDTH 1040 0
DWIDTH 13 0
BBX 13 10 0 -1
BITMAP
0020
0030
FFF8
FFF0
0020
6000
FFF8
FFF8
6000
2000
ENDCHAR
STARTCHAR F0ED
ENCODING 61677
SWIDTH 1040 0
DWIDTH 13 0
BBX 13 10 0 0
BITMAP
1E00
3F00
3FE0
39F0
79F0
F9F8
F8F8
FDF8
FFF8
7FF0
ENDCHAR
STARTCHAR F0EE
ENCODING 61678
SWIDTH 1040 0
DWIDTH 13 0
BBX 13 10 0 0
BITMAP
1E00
3F00
3FE0
39F0
70F0
F9F8
F9F8
F9F8
FFF8
7FF0
ENDCHAR
STARTCHAR F0F0
ENCODING 61680
SWIDTH 800 0
DWIDTH 10 0
BBX 10 11 0 -1
BITMAP
1E00
3E00
3F00
3F00
1E00
5A80
DE80
DF40
BB40
9B40
7F80
ENDCHAR
STARTCHAR F0F1
ENCODING 61681
SWIDTH 800 0
DWIDTH 10 0
BBX 10 11 0 -1
BITMAP
CC00
CC00
8400
85C0
85C0
8480
7880
1080
1080
1980
0E00
ENDCHAR
STARTCHAR F0F2
ENCODING 61682
SWIDTH 1040 0
DWIDTH 13 0
BBX 13 11 0 -1
BITMAP
1F80
1880
DFF0
DFF8
DFF8
DFF8
DFF8
DFF8
DFF8
DFF8
5FF0
ENDCHAR
STARTCHAR F0F3
ENCODING 61683
SWIDTH 1040 0
DWIDTH 13 0
BBX 12 13 0 -2
BITMAP
0200
0F00
1F80
1FC0
1FC0
3FC0
3FC0
3FC0
3FE0
7FF0
FFF0
0F00
0600
ENDCHAR
STARTCHAR F0F4
ENCODING 61684
SWIDTH 1040 0
DWIDTH 13 0
BBX 13 10 0 -1
BITMAP
3FF0
3FD8
3FD8
3FD8
3FF0
3FC0
3FC0
0000
FFF8
7FF0
ENDCHAR
STARTCHAR F0F5
ENCODING 61685
SWIDTH 800 0
DWIDTH 10 0
BBX 10 13 0 -2
BITMAP
BBC0
BFC0
BFC0
BFC0
FFC0
FFC0
77C0
77C0
71C0
71C0
71C0
71C0
61C0
ENDCHAR
STARTCHAR F0F6
ENCODING 61686
SWIDTH 880 0
DWIDTH 11 0
BBX 11 13 0 -2
BITMAP
FF00
8380
82C0
8260
83E0
9F20
9F20
9F20
8020
9F20
8020
8020
FFE0
ENDCHAR
STARTCHAR F0F7
ENCODING 61687
SWIDTH 800 0
DWIDTH 10 0
BBX 10 13 0 -2
BITMAP
FFC0
8040
BD40
8040
BD40
A540
A540
BD40
8040
A140
9C40
9C40
FFC0
ENDCHAR
STARTCHAR F0F8
ENCODING 61688
SWIDTH 800 0
DWIDTH 10 0
BBX 10 13 0 -2
BITMAP
1E00
1A00
1200
FBC0
9E40
A540
A540
BD40
8040
A140
9C40
9C40
FFC0
ENDCHAR
STARTCHAR F0F9
ENCODING 61689
SWIDTH 1040 0
DWIDTH 13 0
BBX 14 11 0 -1
BITMAP
0FFC
0F3C
0F3C
3C1C
6F3C
7F3C
7FFC
7FFC
EFBC
28B0
3860
ENDCHAR
STARTCHAR F0FA
ENCODING 61690
SWIDTH 1040 0
DWIDTH 13 0
BBX 13 11 0 -1
BITMAP
1F80
1880
FFD0
FFD8
F9D8
F9D8
F058
F9D8
F9D8
FFD8
7FD0
ENDCHAR
STARTCHAR F0FB
ENCODING 61691
SWIDTH 1040 0
DWIDTH 13 0
BBX 13 8 0 0
BITMAP
1800
9C00
DF00
FFF8
FFF0
DE00
1C00
1800
ENDCHAR
STARTCHAR F0FC
ENCODING 61692
SWIDTH 960 0
DWIDTH 12 0
BBX 12 10 0 0
BITMAP
0FE0
FFE0
7FE0
6FE0
6FE0
7FE0
3FE0
0FE0
1FF0
1FF0
ENDCHAR
STARTCHAR F0FD
ENCODING 61693
SWIDTH 880 0
DWIDTH 11 0
BBX 11 11 0 -1
BITMAP
7FC0
FFE0
DE60
DE60
DE60
C060
DE60
DE60
DE60
FFE0
7FC0
ENDCHAR
STARTCHAR F0FE
ENCODING 61694
SWIDTH 880 0
DWIDTH 11 0
BBX 11 11 0 -1
BITMAP
7FC0
FFE0
FBE0
FBE0
FBE0
C060
FBE0
FBE0
FBE0
FFE0
7FC0
ENDCHAR
STARTCHAR F100
ENCODING 61696
SWIDTH 560 0
DWIDTH 7 0
BBX 7 7 0 1
BITMAP
12
36
6C
D8
58
2C
16
ENDCHAR
STARTCHAR F101
ENCODING 61697
SWIDTH 560 0
DWIDTH 7 0
BBX 7 7 0 1
BITMAP
90
D8
6C
36
34
68
D0
ENDCHAR
STARTCHAR F102
ENCODING 61698
SWIDTH 640 0
DWIDTH 8 0
BBX 8 7 0 1
BITMAP
18
3C
66
DB
3C
66
C3
ENDCHAR
STARTCHAR F103
ENCODING 61699
SWIDTH 640 0
DWIDTH 8 0
BBX 8 6 0 1
BITMAP
C3
66
3C
5A
24
18
ENDCHAR
STARTCHAR F104
ENCODING 61700
SWIDTH 320 0
DWIDTH 4 0
BBX 4 7 0 1
BITMAP
10
30
60
C0
40
20
10
ENDCHAR
STARTCHAR F105
ENCODING 61701
SWIDTH 320 0
DWIDTH 4 0
BBX 4 7 0 1
BITMAP
80
C0
60
30
30
60
C0
ENDCHAR
STARTCHAR F106
ENCODING 61702
SWIDTH 640 0
DWIDTH 8 0
BBX 8 4 0 2
BITMAP
18
3C
66
C3
ENDCHAR
STARTCHAR F107
ENCODING 61703
SWIDTH 640 0
DWIDTH 8 0
BBX 8 4 0 2
BITMAP
C3
66
3C
18
ENDCHAR
STARTCHAR F108
ENCODING 61704
SWIDTH 1040 0
DWIDTH 13 0
BBX 14 12 0 -1
BITMAP
FFF8
800C
800C
800C
800C
800C
800C
FFFC
FFFC
FFF8
0780
0F80
ENDCHAR
STARTCHAR F109
ENCODING 61705
SWIDTH 1040 0
DWIDTH 13 0
BBX 14 9 0 0
BITMAP
3FF0
2010
2010
2010
2010
2010
3FF0
FFFC
FFF8
ENDCHAR
STARTCHAR F10A
ENCODING 61706
SWIDTH 640 0
DWIDTH 8 0
BBX 8 10 0 0
BITMAP
FF
81
81
81
81
81
81
81
FF
FF
ENDCHAR
STARTCHAR F10B
ENCODING 61707
SWIDTH 400 0
DWIDTH 5 0
BBX 5 9 0 0
BITMAP
F8
F8
88
88
88
88
88
F8
F8
ENDCHAR
STARTCHAR F10C
ENCODING 61708
SWIDTH 880 0
DWIDTH 11 0
BBX 11 11 0 -1
BITMAP
1F00
3F80
60C0
C0C0
C060
C060
C060
C0C0
61C0
3F80
1E00
ENDCHAR
STARTCHAR F10D
ENCODING 61709
SWIDTH 960 0
DWIDTH 12 0
BBX 12 10 0 0
BITMAP
38E0
79E0
C380
C300
FBE0
FBF0
FBF0
FBF0
FBF0
F9E0
ENDCHAR
STARTCHAR F10E
ENCODING 61710
SWIDTH 960 0
DWIDTH 12 0
BBX 12 10 0 0
BITMAP
FBE0
FBF0
FBF0
FBF0
FBF0
79F0
1830
1870
79E0
71C0
ENDCHAR
STARTCHAR F110
ENCODING 61712
SWIDTH 1040 0
DWIDTH 13 0
BBX 12 12 0 -1
BITMAP
0600
0760
36E0
30E0
0040
4010
C030
0000
0000
3060
3240
0600
ENDCHAR
STARTCHAR F111
ENCODING 61713
SWIDTH 880 0
DWIDTH 11 0
BBX 11 11 0 -1
BITMAP
1F00
3F80
7FC0
FFC0
FFE0
FFE0
FFE0
FFC0
7FC0
3F80
1E00
ENDCHAR
STARTCHAR F112
ENCODING 61714
SWIDTH 1040 0
DWIDTH 13 0
BBX 13 11 0 0
BITMAP
1800
3800
7FC0
FFF0
FFF0
7FF8
3838
1018
0010
0010
0010
ENDCHAR
STARTCHAR F113
ENCODING 61715
SWIDTH 960 0
DWIDTH 12 0
BBX 12 10 0 -1
BITMAP
60E0
7FE0
7FE0
FFE0
FFF0
D1B0
D9B0
D1A0
6060
1F80
ENDCHAR
STARTCHAR F114
ENCODING 61716
SWIDTH 960 0
DWIDTH 12 0
BBX 12 10 0 0
BITMAP
F800
8800
8FE0
8010
8010
8010
8010
8010
8010
FFE0
ENDCHAR
STARTCHAR F115
ENCODING 61717
SWIDTH 1040 0
DWIDTH 13 0
BBX 13 10 0 0
BITMAP
F800
8800
8FE0
8020
8FF8
BFF8
A008
C010
8030
FFE0
ENDCHAR
STARTCHAR F116
ENCODING 61718
SWIDTH 1040 0
DWIDTH 13 0
BBX 0 0 0 0
BITMAP
ENDCHAR
STARTCHAR F117
ENCODING 61719
SWIDTH 1040 0
DWIDTH 13 0
BBX 0 0 0 0
BITMAP
ENDCHAR
STARTCHAR F118
ENCODING 61720
SWIDTH 880 0
DWIDTH 11 0
BBX 11 11 0 -1
BITMAP
1F00
2180
4040
9B40
9120
8020
9120
DB40
4CC0
3180
1E00
ENDCHAR
STARTCHAR F119
ENCODING 61721
SWIDTH 880 0
DWIDTH 11 0
BBX 11 11 0 -1
BITMAP
1F00
2180
4040
9B40
9120
8020
9E20
D140
40C0
3180
1E00
ENDCHAR
STARTCHAR F11A
ENCODING 61722
SWIDTH 880 0
DWIDTH 11 0
BBX 11 11 0 -1
BITMAP
1F00
2180
4040
9B40
9120
8020
9F20
C040
40C0
3180
1E00
ENDCHAR
STARTCHAR F11B
ENCODING 61723
SWIDTH 1040 0
DWIDTH 13 0
BBX 14 7 0 0
BITMAP
7FF0
EFF8
EFD8
83FC
EF38
7FF8
38F0
ENDCHAR
STARTCHAR F11C
ENCODING 61724
SWIDTH 1040 0
DWIDTH 13 0
BBX 14 8 0 0
BITMAP
FFF8
A54C
BD5C
BABC
800C
BFDC
800C
FFF8
ENDCHAR
STARTCHAR F11D
ENCODING 61725
SWIDTH 1040 0
DWIDTH 13 0
BBX 13 11 0 -1
BITMAP
C000
DF98
70F8
6018
6018
6018
6F18
70F0
4000
4000
4000
ENDCHAR
STARTCHAR F11E
ENCODING 61726
SWIDTH 1040 0
DWIDTH 13 0
BBX 13 11 0 -1
BITMAP
C000
DF98
73F8
6D98
7C78
73F8
6F98
70F0
4000
4000
4000
ENDCHAR
STARTCHAR F120
ENCODING 61728
SWIDTH 960 0
DWIDTH 12 0
BBX 12 8 0 0
BITMAP
8000
C000
6000
3000
3000
6000
C000
0FF0
ENDCHAR
STARTCHAR F121
ENCODING 61729
SWIDTH 1040 0
DWIDTH 13 0
BBX 13 10 0 -1
BITMAP
0180
1140
3160
6330
C218
4218
2230
1660
0400
0400
ENDCHAR
STARTCHAR F122
ENCODING 61730
SWIDTH 1040 0
DWIDTH 13 0
BBX 13 11 0 0
BITMAP
1E00
3E00
7FC0
DFF0
DFF0
6FF0
3638
1A18
0010
0010
0010
ENDCHAR
STARTCHAR F123
ENCODING 61731
SWIDTH 960 0
DWIDTH 12 0
BBX 12 12 0 -1
BITMAP
0400
0600
0E00
0F00
FDF0
FC60
3CC0
1C80
3C80
3F80
39C0
2000
ENDCHAR
STARTCHAR F124
ENCODING 61732
SWIDTH 800 0
DWIDTH 10 0
BBX 10 10 0 -1
BITMAP
00C0
0380
0F80
3F00
FF00
0E00
0E00
0C00
0C00
0800
ENDCHAR
STARTCHAR F125
ENCODING 61733
SWIDTH 960 0
DWIDTH 12 0
BBX 12 12 0 -2
BITMAP
3010
3020
FFC0
FFC0
31C0
32C0
34C0
38C0
3FF0
3FF0
00C0
00C0
ENDCHAR
STARTCHAR F126
ENCODING 61734
SWIDTH 560 0
DWIDTH 7 0
BBX 7 11 0 -1
BITMAP
C0
A6
CA
46
44
5C
78
40
C0
A0
C0
ENDCHAR
STARTCHAR F127
ENCODING 61735
SWIDTH 960 0
DWIDTH 12 0
BBX 12 12 0 -1
BITMAP
3100
7920
CD40
C600
E060
7080
30C0
F060
0E30
2760
53E0
01C0
ENDCHAR
STARTCHAR F128
ENCODING 61736
SWIDTH 560 0
DWIDTH 7 0
BBX 6 9 1 0
BITMAP
78
FC
CC
1C
38
30
00
30
30
ENDCHAR
STARTCHAR F129
ENCODING 61737
SWIDTH 320 0
DWIDTH 4 0
BBX 5 10 0 0
BITMAP
70
70
00
E0
F0
F0
70
70
F8
F8
ENDCHAR
STARTCHAR F12A
ENCODING 61738
SWIDTH 320 0
DWIDTH 4 0
BBX 3 10 1 0
BITMAP
E0
E0
E0
E0
E0
E0
00
E0
E0
E0
ENDCHAR
STARTCHAR F12B
ENCODING 61739
SWIDTH 880 0
DWIDTH 11 0
BBX 11 10 0 0
BITMAP
00C0
0160
0060
CC80
EDE0
79E0
3000
3800
7C00
CC00
ENDCHAR
STARTCHAR F12C
ENCODING 61740
SWIDTH 880 0
DWIDTH 11 0
BBX 11 9 0 -2
BITMAP
CC00
EC00
7800
30C0
39E0
7C60
CCC0
0120
01E0
ENDCHAR
STARTCHAR F12D
ENCODING 61741
SWIDTH 1040 0
DWIDTH 13 0
BBX 13 9 0 0
BITMAP
03F8
07F8
0FF0
1FF0
1FE0
20C0
4180
8300
FE00
ENDCHAR
STARTCHAR F12E
ENCODING 61742
SWIDTH 960 0
DWIDTH 12 0
BBX 12 11 0 0
BITMAP
1800
1C00
1800
1800
FF00
FF00
FF20
F7F0
E7F0
E700
E700
ENDCHAR
STARTCHAR F130
ENCODING 61744
SWIDTH 640 0
DWIDTH 8 0
BBX 8 12 0 -1
BITMAP
18
3C
3C
3C
3C
BD
BD
BD
42
3C
18
7E
ENDCHAR
STARTCHAR F131
ENCODING 61745
SWIDTH 800 0
DWIDTH 10 0
BBX 10 12 0 -1
BITMAP
0C00
1E00
1CC0
1980
1300
6680
4E80
1E80
3100
7E00
C800
3F00
ENDCHAR
STARTCHAR F132
ENCODING 61746
SWIDTH 720 0
DWIDTH 9 0
BBX 9 11 0 -1
BITMAP
FF80
FF80
F980
F980
F980
F980
F980
F980
7B00
3E00
0800
ENDCHAR
STARTCHAR F133
ENCODING 61747
SWIDTH 960 0
DWIDTH 12 0
BBX 12 13 0 -2
BITMAP
31C0
3940
FF70
FFF0
FFF0
8010
8010
8010
8010
8010
8010
8010
FFE0
ENDCHAR
STARTCHAR F134
ENCODING 61748
SWIDTH 800 0
DWIDTH 10 0
BBX 10 12 0 -1
BITMAP
3000
31C0
7FC0
D8C0
BC00
3C00
3C00
3C00
3C00
3C00
3C00
3C00
ENDCHAR
STARTCHAR F135
ENCODING 61749
SWIDTH 960 0
DWIDTH 12 0
BBX 12 11 0 -2
BITMAP
00F0
01F0
03A0
07E0
7FE0
7FC0
FF80
1F00
0F00
0F00
0E00
ENDCHAR
STARTCHAR F136
ENCODING 61750
SWIDTH 1040 0
DWIDTH 13 0
BBX 12 9 0 0
BITMAP
FFE0
7FF0
7330
7730
6770
6770
E670
EE60
EE60
ENDCHAR
STARTCHAR F137
ENCODING 61751
SWIDTH 880 0
DWIDTH 11 0
BBX 11 11 0 -1
BITMAP
1F00
3F80
79C0
F1C0
E3E0
E7E0
F3E0
F9C0
7DC0
3F80
1E00
ENDCHAR
STARTCHAR F138
ENCODING 61752
SWIDTH 880 0
DWIDTH 11 0
BBX 11 11 0 -1
BITMAP
1F00
3F80
77C0
F3C0
F9E0
FCE0
F9E0
F3C0
77C0
3F80
1E00
ENDCHAR
STARTCHAR F139
ENCODING 61753
SWIDTH 880 0
DWIDTH 11 0
BBX 11 11 0 -1
BITMAP
1F00
3F80
7FC0
F3C0
E1E0
C4E0
CE60
FFC0
7FC0
3F80
1E00
ENDCHAR
STARTCHAR F13A
ENCODING 61754
SWIDTH 880 0
DWIDTH 11 0
BBX 11 11 0 -1
BITMAP
1F00
3F80
7FC0
FFC0
CE60
E4E0
F1E0
FBC0
7FC0
3F80
1E00
ENDCHAR
STARTCHAR F13B
ENCODING 61755
SWIDTH 800 0
DWIDTH 10 0
BBX 10 11 0 -1
BITMAP
FFC0
FFC0
C0C0
DFC0
DFC0
C080
FD80
5D80
6180
7F80
3F00
ENDCHAR
STARTCHAR F13C
ENCODING 61756
SWIDTH 1040 0
DWIDTH 13 0
BBX 12 11 0 -1
BITMAP
3FF0
7FF0
0030
7FF0
7FF0
7FE0
0060
E060
F1E0
FFC0
1E00
ENDCHAR
STARTCHAR F13D
ENCODING 61757
SWIDTH 1040 0
DWIDTH 13 0
BBX 13 13 0 -2
BITMAP
0600
0F00
0F00
0600
0E00
1F80
0F80
0600
E678
C638
F6F8
3FC0
0700
ENDCHAR
STARTCHAR F13E
ENCODING 61758
SWIDTH 640 0
DWIDTH 8 0
BBX 8 11 0 0
BITMAP
3C
7E
66
42
40
FF
FF
FF
FF
FF
FF
ENDCHAR
STARTCHAR F140
ENCODING 61760
SWIDTH 880 0
DWIDTH 11 0
BBX 11 11 0 -1
BITMAP
1F00
2180
5F40
B140
AEA0
BEA0
AEA0
F140
5EC0
3180
1E00
ENDCHAR
STARTCHAR F141
ENCODING 61761
SWIDTH 800 0
DWIDTH 10 0
BBX 10 3 0 4
BITMAP
4C80
FDC0
FDC0
ENDCHAR
STARTCHAR F142
ENCODING 61762
SWIDTH 240 0
DWIDTH 3 0
BBX 3 10 0 0
BITMAP
E0
E0
E0
40
E0
E0
00
E0
E0
E0
ENDCHAR
STARTCHAR F143
ENCODING 61763
SWIDTH 880 0
DWIDTH 11 0
BBX 11 11 0 -1
BITMAP
7FC0
FFE0
CFE0
E3E0
F9E0
CCE0
E6E0
D2E0
DA60
FFE0
7FC0
ENDCHAR
STARTCHAR F144
ENCODING 61764
SWIDTH 880 0
DWIDTH 11 0
BBX 11 11 0 -1
BITMAP
1F00
3F80
7FC0
F7C0
F1E0
F0E0
F1E0
F7C0
7FC0
3F80
1E00
ENDCHAR
STARTCHAR F145
ENCODING 61765
SWIDTH 1040 0
DWIDTH 13 0
BBX 12 12 0 -1
BITMAP
0100
0380
0780
0D80
1BF0
37F0
6FE0
FFC0
7F80
1F00
0E00
0C00
ENDCHAR
STARTCHAR F146
ENCODING 61766
SWIDTH 880 0
DWIDTH 11 0
BBX 11 11 0 -1
BITMAP
7FC0
FFE0
FFE0
FFE0
FFE0
C060
FFE0
FFE0
FFE0
FFE0
7FC0
ENDCHAR
STARTCHAR F147
ENCODING 61767
SWIDTH 800 0
DWIDTH 10 0
BBX 10 10 0 0
BITMAP
7F80
8040
8040
8040
BF40
BF40
8040
8040
8040
7F80
ENDCHAR
STARTCHAR F148
ENCODING 61768
SWIDTH 560 0
DWIDTH 7 0
BBX 7 10 0 0
BITMAP
08
1C
3E
3E
18
18
18
18
78
F8
ENDCHAR
STARTCHAR F149
ENCODING 61769
SWIDTH 560 0
DWIDTH 7 0
BBX 7 10 0 -1
BITMAP
F8
78
18
18
18
18
3E
3E
1C
08
ENDCHAR
STARTCHAR F14A
ENCODING 61770
SWIDTH 880 0
DWIDTH 11 0
BBX 11 11 0 -1
BITMAP
7FC0
FFE0
FFE0
FE60
DCE0
C9E0
E3E0
F7E0
FFE0
FFE0
7FC0
ENDCHAR
STARTCHAR F14B
ENCODING 61771
SWIDTH 880 0
DWIDTH 11 0
BBX 11 11 0 -1
BITMAP
7FC0
FFE0
FCE0
FA60
F5E0
E9E0
D3E0
F7E0
CFE0
FFE0
7FC0
ENDCHAR
STARTCHAR F14C
ENCODING 61772
SWIDTH 880 0
DWIDTH 11 0
BBX 11 11 0 -1
BITMAP
7FC0
FFE0
F860
FC60
F860
F360
E7E0
CFE0
FFE0
FFE0
7FC0
ENDCHAR
STARTCHAR F14D
ENCODING 61773
SWIDTH 880 0
DWIDTH 11 0
BBX 11 11 0 -1
BITMAP
7FC0
FDE0
FCE0
E060
C060
C4E0
DDE0
DFE0
DFE0
FFE0
7FC0
ENDCHAR
STARTCHAR F14E
ENCODING 61774
SWIDTH 880 0
DWIDTH 11 0
BBX 11 11 0 -1
BITMAP
1F00
3F80
60C0
C6C0
DE60
DE60
DE60
D8C0
61C0
3F80
1E00
ENDCHAR
STARTCHAR F150
ENCODING 61776
SWIDTH 880 0
DWIDTH 11 0
BBX 11 11 0 -1
BITMAP
7FC0
FFE0
C060
DF60
DF60
DE60
CE60
C460
C060
FFE0
7FC0
ENDCHAR
STARTCHAR F151
ENCODING 61777
SWIDTH 880 0
DWIDTH 11 0
BBX 11 11 0 -1
BITMAP
7FC0
FFE0
C060
C460
CE60
DE60
DF60
C060
C060
FFE0
7FC0
ENDCHAR
STARTCHAR F152
ENCODING 61778
SWIDTH 880 0
DWIDTH 11 0
BBX 11 11 0 -1
BITMAP
7FC0
FFE0
C060
D860
DE60
DF60
DE60
D860
C060
FFE0
7FC0
ENDCHAR
STARTCHAR F153
ENCODING 61779
SWIDTH 560 0
DWIDTH 7 0
BBX 7 10 0 0
BITMAP
1E
3E
60
FC
FC
FC
FC
70
3E
1E
ENDCHAR
STARTCHAR F154
ENCODING 61780
SWIDTH 560 0
DWIDTH 7 0
BBX 7 10 0 0
BITMAP
3C
7C
60
60
F8
F8
60
66
FE
FE
ENDCHAR
STARTCHAR F155
ENCODING 61781
SWIDTH 560 0
DWIDTH 7 0
BBX 7 13 0 -2
BITMAP
10
10
7E
E4
C0
70
3C
0E
06
EE
7C
10
10
ENDCHAR
STARTCHAR F156
ENCODING 61782
SWIDTH 480 0
DWIDTH 6 0
BBX 6 10 0 0
BITMAP
FC
F8
FC
FC
F8
E0
60
70
38
18
ENDCHAR
STARTCHAR F157
ENCODING 61783
SWIDTH 560 0
DWIDTH 7 0
BBX 7 10 0 0
BITMAP
C6
E6
6C
3C
FE
FE
FE
18
18
18
ENDCHAR
STARTCHAR F158
ENCODING 61784
SWIDTH 720 0
DWIDTH 9 0
BBX 9 10 0 0
BITMAP
3F00
3F80
3180
3180
3380
FF00
3000
FE00
3000
3000
ENDCHAR
STARTCHAR F159
ENCODING 61785
SWIDTH 1040 0
DWIDTH 13 0
BBX 13 10 0 0
BITMAP
C610
4630
4730
FFF8
FFF0
FFF0
29E0
39C0
38C0
18C0
ENDCHAR
STARTCHAR F15A
ENCODING 61786
SWIDTH 720 0
DWIDTH 9 0
BBX 9 12 0 -2
BITMAP
3C00
3C00
FF00
3300
3300
3F00
3380
3380
FF80
FF00
3C00
3C00
ENDCHAR
STARTCHAR F15B
ENCODING 61787
SWIDTH 880 0
DWIDTH 11 0
BBX 11 13 0 -2
BITMAP
FC00
FD00
FD80
FDC0
FE00
FFE0
FFE0
FFE0
FFE0
FFE0
FFE0
FFE0
FFE0
ENDCHAR
STARTCHAR F15C
ENCODING 61788
SWIDTH 880 0
DWIDTH 11 0
BBX 11 13 0 -2
BITMAP
FC00
FD00
FD80
FDC0
FE00
FFE0
FFE0
E0E0
FFE0
E0E0
FFE0
FFE0
FFE0
ENDCHAR
STARTCHAR F15D
ENCODING 61789
SWIDTH 960 0
DWIDTH 12 0
BBX 12 13 0 -2
BITMAP
30C0
30C0
31C0
31E0
3120
3370
3000
31E0
3160
30C0
F880
71A0
21E0
ENDCHAR
STARTCHAR F15E
ENCODING 61790
SWIDTH 960 0
DWIDTH 12 0
BBX 12 13 0 -2
BITMAP
31E0
3160
30C0
3080
3120
31E0
3000
30C0
30C0
31C0
F9E0
7120
2370
ENDCHAR
STARTCHAR F160
ENCODING 61792
SWIDTH 1040 0
DWIDTH 13 0
BBX 13 13 0 -2
BITMAP
3380
3380
3000
3000
33C0
33C0
3000
33E0
33E0
3000
F800
73F8
23F8
ENDCHAR
STARTCHAR F161
ENCODING 61793
SWIDTH 1040 0
DWIDTH 13 0
BBX 13 13 0 -2
BITMAP
33F8
33F8
3000
3000
33E0
33E0
3000
33C0
33C0
3000
F800
7380
2380
ENDCHAR
STARTCHAR F162
ENCODING 61794
SWIDTH 880 0
DWIDTH 11 0
BBX 10 13 0 -2
BITMAP
3080
3180
3080
3080
3080
31C0
3000
3180
3140
3140
F9C0
7040
2180
ENDCHAR
STARTCHAR F163
ENCODING 61795
SWIDTH 880 0
DWIDTH 11 0
BBX 10 13 0 -2
BITMAP
31C0
3140
3140
31C0
31C0
3180
3000
3080
3180
3080
F880
7080
21C0
ENDCHAR
STARTCHAR F164
ENCODING 61796
SWIDTH 960 0
DWIDTH 12 0
BBX 11 11 0 -1
BITMAP
0300
0380
0780
0700
EFE0
FFE0
FFE0
FFE0
BFE0
FFC0
07C0
ENDCHAR
STARTCHAR F165
ENCODING 61797
SWIDTH 960 0
DWIDTH 12 0
BBX 11 11 0 -2
BITMAP
07C0
FFC0
BFE0
FFE0
FFE0
FFE0
0FE0
0700
0380
0380
0300
ENDCHAR
STARTCHAR F166
ENCODING 61798
SWIDTH 880 0
DWIDTH 11 0
BBX 11 11 0 -1
BITMAP
7FC0
FFE0
EEE0
FCE0
FFE0
F460
EFE0
EFE0
EFE0
C060
7FC0
ENDCHAR
STARTCHAR F167
ENCODING 61799
SWIDTH 880 0
DWIDTH 11 0
BBX 11 13 0 -2
BITMAP
3000
3C80
3E80
1E80
1D80
7F80
FFC0
FFE0
EFA0
EF20
EFE0
FFC0
7FC0
ENDCHAR
STARTCHAR F168
ENCODING 61800
SWIDTH 800 0
DWIDTH 10 0
BBX 10 12 0 -1
BITMAP
01C0
0180
6380
7300
7700
7600
6E00
EC00
0E00
0700
0700
0380
ENDCHAR
STARTCHAR F169
ENCODING 61801
SWIDTH 880 0
DWIDTH 11 0
BBX 11 11 0 -1
BITMAP
7FC0
FE60
FEE0
ECE0
E5E0
E9E0
DBE0
F9E0
FDE0
FCE0
7FC0
ENDCHAR
STARTCHAR F16A
ENCODING 61802
SWIDTH 1040 0
DWIDTH 13 0
BBX 13 9 0 0
BITMAP
7FF0
FFF0
FBF8
F8F8
F878
F9F8
FBF8
FFF0
7FF0
ENDCHAR
STARTCHAR F16B
ENCODING 61803
SWIDTH 1040 0
DWIDTH 13 0
BBX 11 11 1 -1
BITMAP
3180
FBC0
FBE0
61C0
6080
F3E0
FFC0
3D80
3F80
1F00
0400
ENDCHAR
STARTCHAR F16C
ENCODING 61804
SWIDTH 880 0
DWIDTH 11 0
BBX 11 13 0 -2
BITMAP
0100
0100
0580
0EC0
13E0
1EC0
0780
3E00
8740
BF40
BF40
8040
FFC0
ENDCHAR
STARTCHAR F16D
ENCODING 61805
SWIDTH 880 0
DWIDTH 11 0
BBX 11 11 0 -1
BITMAP
FFC0
FE60
FE60
FBE0
F1E0
A1E0
B1E0
9F60
8E60
FFE0
FFC0
ENDCHAR
STARTCHAR F16E
ENCODING 61806
SWIDTH 880 0
DWIDTH 11 0
BBX 11 11 0 -1
BITMAP
7FC0
FFE0
FFE0
FFE0
CCE0
C460
ECE0
FFE0
FFE0
FFE0
7FC0
ENDCHAR
STARTCHAR F170
ENCODING 61808
SWIDTH 880 0
DWIDTH 11 0
BBX 11 11 0 -1
BITMAP
1F00
3F80
7FC0
FBC0
F5E0
EFE0
FFE0
FFC0
7FC0
3F80
1E00
ENDCHAR
STARTCHAR F171
ENCODING 61809
SWIDTH 800 0
DWIDTH 10 0
BBX 10 11 0 -1
BITMAP
7F80
C1C0
FFC0
FFC0
FB80
7F80
7380
3F00
7380
7F00
3F00
ENDCHAR
STARTCHAR F172
ENCODING 61810
SWIDTH 880 0
DWIDTH 11 0
BBX 11 11 0 -1
BITMAP
7FC0
F3E0
DF60
C060
CCE0
CAE0
E4E0
FEE0
E0E0
FFE0
7FC0
ENDCHAR
STARTCHAR F173
ENCODING 61811
SWIDTH 560 0
DWIDTH 7 0
BBX 7 12 0 -1
BITMAP
18
38
38
FE
FE
78
78
78
78
3E
3E
1E
ENDCHAR
STARTCHAR F174
ENCODING 61812
SWIDTH 880 0
DWIDTH 11 0
BBX 11 11 0 -1
BITMAP
7FC0
FBE0
F3E0
E0E0
F3E0
F3E0
F3E0
F3E0
F1E0
F9E0
7FC0
ENDCHAR
STARTCHAR F175
ENCODING 61813
SWIDTH 400 0
DWIDTH 5 0
BBX 5 12 0 -1
BITMAP
30
30
30
30
30
30
30
30
30
F8
78
30
ENDCHAR
STARTCHAR F176
ENCODING 61814
SWIDTH 400 0
DWIDTH 5 0
BBX 5 12 0 -1
BITMAP
30
78
F8
30
30
30
30
30
30
30
30
30
ENDCHAR
STARTCHAR F177
ENCODING 61815
SWIDTH 1040 0
DWIDTH 13 0
BBX 13 5 0 2
BITMAP
3000
7FF0
FFF8
7000
3000
ENDCHAR
STARTCHAR F178
ENCODING 61816
SWIDTH 1040 0
DWIDTH 13 0
BBX 12 5 0 2
BITMAP
0040
FFE0
FFF0
0060
0040
ENDCHAR
STARTCHAR F179
ENCODING 61817
SWIDTH 800 0
DWIDTH 10 0
BBX 10 12 0 -1
BITMAP
0200
0600
0400
7F80
FF80
FF00
FF00
FF80
FFC0
7F80
7F80
3B00
ENDCHAR
STARTCHAR F17A
ENCODING 61818
SWIDTH 960 0
DWIDTH 12 0
BBX 12 12 0 -2
BITMAP
01F0
FFF0
FFF0
FFF0
FFF0
FFF0
FFF0
FFF0
FFF0
FFF0
3FF0
0070
ENDCHAR
STARTCHAR F17B
ENCODING 61819
SWIDTH 800 0
DWIDTH 10 0
BBX 10 12 0 -2
BITMAP
2200
1E00
3F00
3F00
FFC0
FFC0
FFC0
FFC0
3F00
1E00
1E00
1600
ENDCHAR
STARTCHAR F17C
ENCODING 61820
SWIDTH 880 0
DWIDTH 11 0
BBX 11 13 0 -2
BITMAP
0E00
1E00
1600
1300
1F00
1180
2180
21C0
60C0
5380
9220
8E40
7180
ENDCHAR
STARTCHAR F17D
ENCODING 61821
SWIDTH 880 0
DWIDTH 11 0
BBX 11 11 0 -1
BITMAP
1F00
3980
48C0
8740
FE20
83E0
8E20
B340
6140
3180
1E00
ENDCHAR
STARTCHAR F17E
ENCODING 61822
SWIDTH 880 0
DWIDTH 11 0
BBX 11 11 0 -1
BITMAP
7C00
FF00
F180
ECC0
E7C0
F0C0
FCC0
64E0
7BE0
3FC0
0180
ENDCHAR
STARTCHAR F180
ENCODING 61824
SWIDTH 720 0
DWIDTH 9 0
BBX 9 12 0 -1
BITMAP
FF80
FF80
C180
CD00
CF00
C300
C300
DE00
F000
E000
E000
C000
ENDCHAR
STARTCHAR F181
ENCODING 61825
SWIDTH 880 0
DWIDTH 11 0
BBX 11 11 0 -1
BITMAP
FFE0
8460
8460
8460
8460
8460
87E0
87E0
87E0
FFE0
FFE0
ENDCHAR
STARTCHAR F182
ENCODING 61826
SWIDTH 720 0
DWIDTH 9 0
BBX 9 13 0 -2
BITMAP
0800
1C00
1C00
0800
3E00
7F00
DD80
FF80
3E00
7F00
1C00
1C00
1C00
ENDCHAR
STARTCHAR F183
ENCODING 61827
SWIDTH 560 0
DWIDTH 7 0
BBX 7 13 0 -2
BITMAP
10
38
38
10
FE
FE
BA
BA
BA
28
28
28
28
ENDCHAR
STARTCHAR F184
ENCODING 61828
SWIDTH 880 0
DWIDTH 11 0
BBX 11 11 0 -1
BITMAP
1F00
3F80
7FC0
EDC0
E0E0
F1E0
F1E0
FBC0
7FC0
3F80
1E00
ENDCHAR
STARTCHAR F185
ENCODING 61829
SWIDTH 1040 0
DWIDTH 13 0
BBX 12 13 0 -2
BITMAP
0200
3640
3FC0
3040
E030
4030
4020
6030
E030
3040
3FC0
2640
0200
ENDCHAR
STARTCHAR F186
ENCODING 61830
SWIDTH 880 0
DWIDTH 11 0
BBX 10 11 0 -1
BITMAP
1C00
2800
5800
9000
9000
8800
8C00
C7C0
40C0
3180
1E00
ENDCHAR
STARTCHAR F187
ENCODING 61831
SWIDTH 1040 0
DWIDTH 13 0
BBX 12 11 0 -1
BITMAP
FFF0
FFF0
FFF0
7FF0
7FF0
7FF0
7FF0
7FF0
7FF0
7FF0
7FF0
ENDCHAR
STARTCHAR F188
ENCODING 61832
SWIDTH 960 0
DWIDTH 12 0
BBX 11 11 0 0
BITMAP
0F00
5F20
6040
3FC0
3BC0
FBE0
3B80
3B80
3B80
6B40
4000
ENDCHAR
STARTCHAR F189
ENCODING 61833
SWIDTH 1040 0
DWIDTH 13 0
BBX 13 8 0 0
BITMAP
C718
E738
7778
7770
3FE0
1FF0
1F78
0738
ENDCHAR
STARTCHAR F18A
ENCODING 61834
SWIDTH 1040 0
DWIDTH 13 0
BBX 13 11 0 -1
BITMAP
00E0
0030
1CD0
3DB8
7FB8
E0C0
DE60
9660
DCC0
6380
1E00
ENDCHAR
STARTCHAR F18B
ENCODING 61835
SWIDTH 880 0
DWIDTH 11 0
BBX 11 11 0 -1
BITMAP
1B00
3B80
7BC0
FBC0
F3E0
F3E0
F1E0
E4C0
4C40
1E00
1F00
ENDCHAR
STARTCHAR F18C
ENCODING 61836
SWIDTH 800 0
DWIDTH 10 0
BBX 10 13 0 -2
BITMAP
0800
0C00
0C00
2480
7DC0
3F80
0600
F580
7FC0
3F80
1000
2000
C000
ENDCHAR
STARTCHAR F18D
ENCODING 61837
SWIDTH 720 0
DWIDTH 9 0
BBX 9 11 0 -2
BITMAP
FF80
FF80
FF80
FF80
FF80
FF80
FF80
FF80
7F00
0600
0400
ENDCHAR
STARTCHAR F18E
ENCODING 61838
SWIDTH 880 0
DWIDTH 11 0
BBX 11 11 0 -1
BITMAP
1F00
3F80
60C0
C4C0
DE60
DF60
C660
C4C0
61C0
3F80
1E00
ENDCHAR
STARTCHAR F190
ENCODING 61840
SWIDTH 880 0
DWIDTH 11 0
BBX 11 11 0 -1
BITMAP
1F00
3F80
60C0
C8C0
DF60
DF60
D860
C8C0
61C0
3F80
1E00
ENDCHAR
STARTCHAR F191
ENCODING 61841
SWIDTH 880 0
DWIDTH 11 0
BBX 11 11 0 -1
BITMAP
7FC0
FFE0
C060
C660
CE60
DE60
CE60
C660
C060
FFE0
7FC0
ENDCHAR
STARTCHAR F192
ENCODING 61842
SWIDTH 880 0
DWIDTH 11 0
BBX 11 11 0 -1
BITMAP
1F00
3F80
60C0
C0C0
CE60
DE60
CE60
C0C0
61C0
3F80
1E00
ENDCHAR
STARTCHAR F193
ENCODING 61843
SWIDTH 960 0
DWIDTH 12 0
BBX 11 13 0 -2
BITMAP
1800
1800
1800
1000
1000
7E00
DF00
8180
8280
81E0
C360
6600
1800
ENDCHAR
STARTCHAR F194
ENCODING 61844
SWIDTH 880 0
DWIDTH 11 0
BBX 11 11 0 -1
BITMAP
7FC0
FFE0
EE60
C460
E660
E4E0
E1E0
F1E0
F7E0
FFE0
7FC0
ENDCHAR
STARTCHAR F195
ENCODING 61845
SWIDTH 640 0
DWIDTH 8 0
BBX 8 10 0 0
BITMAP
20
3C
F8
FC
F8
E3
23
26
3E
38
ENDCHAR
STARTCHAR F196
ENCODING 61846
SWIDTH 800 0
DWIDTH 10 0
BBX 10 10 0 0
BITMAP
7F80
8040
8840
8840
BF40
BF40
8840
8840
8040
7F80
ENDCHAR
STARTCHAR F197
ENCODING 61847
SWIDTH 1200 0
DWIDTH 15 0
BBX 15 10 0 -1
BITMAP
1800
3C00
3E00
7FE0
7FFE
FFF6
7FC8
3E00
3C00
1800
ENDCHAR
STARTCHAR F198
ENCODING 61848
SWIDTH 960 0
DWIDTH 12 0
BBX 12 12 0 -1
BITMAP
0200
2740
73C0
7FC0
FF80
F9A0
39F0
1FE0
3FC0
7CC0
0C00
0C00
ENDCHAR
STARTCHAR F199
ENCODING 61849
SWIDTH 880 0
DWIDTH 11 0
BBX 11 11 0 -1
BITMAP
7FC0
FFE0
FFE0
C060
E0E0
D360
CC60
C060
FFE0
FFE0
7FC0
ENDCHAR
STARTCHAR F19A
ENCODING 61850
SWIDTH 1040 0
DWIDTH 13 0
BBX 13 13 0 -2
BITMAP
0F80
3FC0
7FE0
BF90
DDB0
DDD8
CCF8
EEF8
EAB0
A670
5760
2740
1F80
ENDCHAR
STARTCHAR F19B
ENCODING 61851
SWIDTH 1040 0
DWIDTH 13 0
BBX 13 12 0 -1
BITMAP
0100
0300
0300
0300
3BF0
7370
C338
C300
C300
6300
3F00
0E00
ENDCHAR
STARTCHAR F19C
ENCODING 61852
SWIDTH 1120 0
DWIDTH 14 0
BBX 14 13 0 -2
BITMAP
0300
1FC0
7FF8
FFFC
3DB0
3DB0
3DB0
3DB0
3DB0
3DB0
7FF8
FFF8
FFFC
ENDCHAR
STARTCHAR F19D
ENCODING 61853
SWIDTH 1280 0
DWIDTH 16 0
BBX 16 11 0 -1
BITMAP
03C0
1FF8
FFFF
7FFE
27E0
2C38
7FF8
3FF8
67E0
6000
6000
ENDCHAR
STARTCHAR F19E
ENCODING 61854
SWIDTH 880 0
DWIDTH 11 0
BBX 9 12 1 -1
BITMAP
C180
C100
6300
2600
3400
1C00
1800
0800
0800
0800
1800
1800
ENDCHAR
STARTCHAR F1A0
ENCODING 61856
SWIDTH 880 0
DWIDTH 11 0
BBX 11 11 0 -1
BITMAP
1F00
3F80
7100
E000
C000
C7E0
C7E0
E0C0
73C0
3F80
1E00
ENDCHAR
STARTCHAR F1A1
ENCODING 61857
SWIDTH 1040 0
DWIDTH 13 0
BBX 13 13 0 -2
BITMAP
0F80
3FC0
7FE0
7F70
FFF0
F0F8
E938
E978
E770
79F0
7FE0
3FC0
0F00
ENDCHAR
STARTCHAR F1A2
ENCODING 61858
SWIDTH 880 0
DWIDTH 11 0
BBX 11 11 0 -1
BITMAP
7FC0
FFE0
FEE0
FFE0
F1E0
CAE0
EAE0
EDE0
FFE0
FFE0
7FC0
ENDCHAR
STARTCHAR F1A3
ENCODING 61859
SWIDTH 880 0
DWIDTH 11 0
BBX 11 11 0 -1
BITMAP
1F00
3F80
7FC0
F3C0
F5E0
F7E0
D4E0
ECC0
7FC0
3F80
1E00
ENDCHAR
STARTCHAR F1A4
ENCODING 61860
SWIDTH 1040 0
DWIDTH 13 0
BBX 14 11 0 -1
BITMAP
0700
0F80
0FC0
0DC0
0C80
0C00
CDDC
CDD8
FDF8
78F8
3060
ENDCHAR
STARTCHAR F1A5
ENCODING 61861
SWIDTH 880 0
DWIDTH 11 0
BBX 11 11 0 -1
BITMAP
7FC0
87E0
87E0
87E0
87E0
FFE0
F820
F820
F820
F820
7FC0
ENDCHAR
STARTCHAR F1A6
ENCODING 61862
SWIDTH 1120 0
DWIDTH 14 0
BBX 14 9 0 0
BITMAP
3C00
3000
FFFC
FFF4
FFF4
FFF4
FFFC
03FC
03FC
ENDCHAR
STARTCHAR F1A7
ENCODING 61863
SWIDTH 880 0
DWIDTH 11 0
BBX 11 11 0 -1
BITMAP
7FC0
C7E0
DBE0
DBE0
C4E0
DE60
DA60
F8E0
FBE0
FBE0
7FC0
ENDCHAR
STARTCHAR F1A8
ENCODING 61864
SWIDTH 1120 0
DWIDTH 14 0
BBX 14 13 0 -2
BITMAP
0004
0008
0008
01B0
03C0
0380
0F80
FBE0
07F0
03F0
01B8
01DC
01D0
ENDCHAR
STARTCHAR F1A9
ENCODING 61865
SWIDTH 880 0
DWIDTH 11 0
BBX 11 12 0 -1
BITMAP
0C00
1F00
7F80
7FC0
FFE0
FFE0
F7E0
E120
C340
7FC0
3F80
0E00
ENDCHAR
STARTCHAR F1AA
ENCODING 61866
SWIDTH 880 0
DWIDTH 11 0
BBX 11 11 0 -1
BITMAP
E0C0
FBE0
FFC0
6EC0
7F80
3380
7FC0
6EC0
FFE0
FBE0
C0C0
ENDCHAR
STARTCHAR F1AB
ENCODING 61867
SWIDTH 880 0
DWIDTH 11 0
BBX 11 13 0 -2
BITMAP
40C0
7F40
7740
87E0
A7E0
F660
A760
BDE0
C7E0
8BE0
F0E0
0180
1F00
ENDCHAR
STARTCHAR F1AC
ENCODING 61868
SWIDTH 1040 0
DWIDTH 13 0
BBX 13 13 0 -2
BITMAP
0FC0
1860
1870
F810
F810
FFF8
FAB8
FFF8
FAB8
FFF8
FAB8
FFF8
EFF0
ENDCHAR
STARTCHAR F1AD
ENCODING 61869
SWIDTH 880 0
DWIDTH 11 0
BBX 10 13 0 -2
BITMAP
FFC0
FFC0
DAC0
FFC0
DBC0
FFC0
FFC0
DAC0
FFC0
DEC0
F3C0
F3C0
FFC0
ENDCHAR
STARTCHAR F1AE
ENCODING 61870
SWIDTH 720 0
DWIDTH 9 0
BBX 9 12 0 -2
BITMAP
1800
1C00
DD80
6B00
3E00
1C00
1C00
1C00
1400
1400
1400
1400
ENDCHAR
STARTCHAR F1B0
ENCODING 61872
SWIDTH 960 0
DWIDTH 12 0
BBX 12 11 0 -1
BITMAP
1980
3B80
3F80
5BA0
E070
E0F0
EF60
1F80
3FC0
3FC0
39C0
ENDCHAR
STARTCHAR F1B1
ENCODING 61873
SWIDTH 400 0
DWIDTH 5 0
BBX 5 13 0 -2
BITMAP
30
70
F8
F8
F8
78
30
30
30
30
30
70
30
ENDCHAR
STARTCHAR F1B2
ENCODING 61874
SWIDTH 1040 0
DWIDTH 13 0
BBX 12 12 0 -2
BITMAP
0F00
79C0
C030
E0F0
FF90
FC10
FC10
FC10
FC30
7CC0
1F00
0600
ENDCHAR
STARTCHAR F1B3
ENCODING 61875
SWIDTH 1280 0
DWIDTH 16 0
BBX 15 13 0 -2
BITMAP
0380
0EE0
1830
1EF0
1F10
1F38
E7CE
C386
FDFA
F9F2
FBF6
7EFC
1830
ENDCHAR
STARTCHAR F1B4
ENCODING 61876
SWIDTH 1120 0
DWIDTH 14 0
BBX 14 9 0 0
BITMAP
FC00
FE30
C678
FEFC
FECC
C6FC
C6C0
FEFC
FC78
ENDCHAR
STARTCHAR F1B5
ENCODING 61877
SWIDTH 880 0
DWIDTH 11 0
BBX 11 11 0 -1
BITMAP
7FC0
FFE0
FFE0
B7E0
B660
85A0
B5E0
8460
FFE0
FFE0
7FC0
ENDCHAR
STARTCHAR F1B6
ENCODING 61878
SWIDTH 1040 0
DWIDTH 13 0
BBX 13 11 0 -1
BITMAP
00E0
0170
02F8
02F8
07F0
8FF0
FFC0
FF00
FA00
3C00
1800
ENDCHAR
STARTCHAR F1B7
ENCODING 61879
SWIDTH 880 0
DWIDTH 11 0
BBX 11 11 0 -1
BITMAP
7FC0
FCE0
FBE0
FCA0
F4A0
F360
11E0
0FE0
97E0
FFE0
7FC0
ENDCHAR
STARTCHAR F1B8
ENCODING 61880
SWIDTH 1040 0
DWIDTH 13 0
BBX 12 12 0 -1
BITMAP
1F80
1FE0
3DC0
19E0
E870
7070
E070
6130
7DF0
3FE0
3DC0
0100
ENDCHAR
STARTCHAR F1B9
ENCODING 61881
SWIDTH 1120 0
DWIDTH 14 0
BBX 14 11 0 -1
BITMAP
1FE0
3FF0
3030
3030
7FF8
FFFC
9FE4
DFE4
FFFC
701C
7018
ENDCHAR
STARTCHAR F1BA
ENCODING 61882
SWIDTH 1120 0
DWIDTH 14 0
BBX 14 13 0 -2
BITMAP
0780
0780
1FE0
3FF0
3030
3030
7FF8
FFFC
9FE4
DFF4
FFFC
701C
6018
ENDCHAR
STARTCHAR F1BB
ENCODING 61883
SWIDTH 880 0
DWIDTH 11 0
BBX 11 13 0 -2
BITMAP
0400
0E00
1F00
3F80
1F00
3F80
7FC0
1F00
3F80
7FC0
FFE0
0E00
0E00
ENDCHAR
STARTCHAR F1BC
ENCODING 61884
SWIDTH 880 0
DWIDTH 11 0
BBX 11 11 0 -1
BITMAP
1F00
3F80
7FC0
C0C0
FF60
C8E0
FFE0
FEC0
7FC0
3F80
1E00
ENDCHAR
STARTCHAR F1BD
ENCODING 61885
SWIDTH 560 0
DWIDTH 7 0
BBX 7 12 0 -1
BITMAP
06
0E
FE
FE
FC
FC
7E
7E
FE
FE
E0
C0
ENDCHAR
STARTCHAR F1BE
ENCODING 61886
SWIDTH 1280 0
DWIDTH 16 0
BBX 16 7 0 1
BITMAP
00F0
0AF8
1AF8
7AFF
FAFF
FAFF
7AFE
ENDCHAR
STARTCHAR F1C0
ENCODING 61888
SWIDTH 880 0
DWIDTH 11 0
BBX 11 13 0 -2
BITMAP
3F80
FFE0
FFE0
FFC0
9F20
FFE0
7FC0
8060
FFE0
7F80
E0E0
FFE0
1F00
ENDCHAR
STARTCHAR F1C1
ENCODING 61889
SWIDTH 880 0
DWIDTH 11 0
BBX 11 13 0 -2
BITMAP
FF00
8380
82C0
8260
8BE0
8820
8C20
8C20
8FA0
B020
A020
8020
FFE0
ENDCHAR
STARTCHAR F1C2
ENCODING 61890
SWIDTH 880 0
DWIDTH 11 0
BBX 11 13 0 -2
BITMAP
FF00
8380
82C0
8260
83E0
8020
A520
AD20
AD20
9B20
9220
8020
FFE0
ENDCHAR
STARTCHAR F1C3
ENCODING 61891
SWIDTH 880 0
DWIDTH 11 0
BBX 11 13 0 -2
BITMAP
FF00
8380
82C0
8260
83E0
8020
8A20
8C20
8420
8A20
9B20
8020
FFE0
ENDCHAR
STARTCHAR F1C4
ENCODING 61892
SWIDTH 880 0
DWIDTH 11 0
BBX 11 13 0 -2
BITMAP
FF00
8380
82C0
8260
83E0
8020
9E20
9220
8E20
9020
9820
8020
FFE0
ENDCHAR
STARTCHAR F1C5
ENCODING 61893
SWIDTH 880 0
DWIDTH 11 0
BBX 11 13 0 -2
BITMAP
FF00
8380
82C0
8260
83E0
B020
B220
8720
9FA0
BFA0
BFA0
8020
FFE0
ENDCHAR
STARTCHAR F1C6
ENCODING 61894
SWIDTH 880 0
DWIDTH 11 0
BBX 11 13 0 -2
BITMAP
FF00
8B80
82C0
8260
83E0
9820
9820
9C20
9C20
9420
9C20
8020
FFE0
ENDCHAR
STARTCHAR F1C7
ENCODING 61895
SWIDTH 880 0
DWIDTH 11 0
BBX 11 13 0 -2
BITMAP
FF00
8380
82C0
8260
83E0
8020
8920
BD20
BB20
9D20
8120
8020
FFE0
ENDCHAR
STARTCHAR F1C8
ENCODING 61896
SWIDTH 880 0
DWIDTH 11 0
BBX 11 13 0 -2
BITMAP
FF00
8380
82C0
8260
83E0
BCA0
BDA0
BDA0
BDA0
BCA0
8020
8020
FFE0
ENDCHAR
STARTCHAR F1C9
ENCODING 61897
SWIDTH 880 0
DWIDTH 11 0
BBX 11 13 0 -2
BITMAP
FF00
8380
82C0
8260
83E0
9520
B520
A4A0
B5A0
9D20
8820
8020
FFE0
ENDCHAR
STARTCHAR F1CA
ENCODING 61898
SWIDTH 880 0
DWIDTH 11 0
BBX 11 12 0 -1
BITMAP
0380
07C0
C6E0
E6E0
66C0
6300
63E0
31C0
3380
1F00
1E00
0C00
ENDCHAR
STARTCHAR F1CB
ENCODING 61899
SWIDTH 1040 0
DWIDTH 13 0
BBX 13 13 0 -2
BITMAP
0600
0F80
3AC0
6270
C618
EDF8
B8D8
EFB8
C638
7260
1BC0
0F00
0200
ENDCHAR
STARTCHAR F1CC
ENCODING 61900
SWIDTH 1120 0
DWIDTH 14 0
BBX 14 10 0 0
BITMAP
03C0
07F0
3FF0
7FF8
7FF8
F55C
EEDC
F11C
FFFC
7FF8
ENDCHAR
STARTCHAR F1CD
ENCODING 61901
SWIDTH 1040 0
DWIDTH 13 0
BBX 13 13 0 -2
BITMAP
0F80
30C0
78E0
7FF0
B8F0
9058
9058
9058
B8F0
7FF0
78E0
38C0
0F00
ENDCHAR
STARTCHAR F1CE
ENCODING 61902
SWIDTH 1040 0
DWIDTH 13 0
BBX 12 13 0 -2
BITMAP
0100
19C0
30E0
6070
C030
C030
C010
C030
C030
6070
38E0
1FC0
0600
ENDCHAR
STARTCHAR F1D0
ENCODING 61904
SWIDTH 1040 0
DWIDTH 13 0
BBX 13 13 0 -2
BITMAP
0200
2600
4F20
4710
C610
C610
E638
FFF0
FFF0
7FF0
7FE0
1FC0
0F00
ENDCHAR
STARTCHAR F1D1
ENCODING 61905
SWIDTH 1040 0
DWIDTH 13 0
BBX 13 13 0 -2
BITMAP
0F80
39C0
70E0
4230
D290
DFD8
CF18
DFD8
D290
4670
78E0
2FC0
1F00
ENDCHAR
STARTCHAR F1D2
ENCODING 61906
SWIDTH 880 0
DWIDTH 11 0
BBX 11 11 0 -1
BITMAP
7FC0
FFE0
FBE0
FEE0
DEE0
DEE0
DEE0
EFE0
D7E0
FFE0
7FC0
ENDCHAR
STARTCHAR F1D3
ENCODING 61907
SWIDTH 1040 0
DWIDTH 13 0
BBX 12 13 0 -2
BITMAP
0300
0300
0060
7FF0
7FF0
CB60
7B60
7360
6370
7820
CC00
FC00
3800
ENDCHAR
STARTCHAR F1D4
ENCODING 61908
SWIDTH 880 0
DWIDTH 11 0
BBX 11 11 0 -1
BITMAP
7FC0
FFE0
FFE0
FDE0
F7E0
FBE0
FFE0
FFE0
FFE0
FFE0
7FC0
ENDCHAR
STARTCHAR F1D5
ENCODING 61909
SWIDTH 720 0
DWIDTH 9 0
BBX 9 13 0 -2
BITMAP
1C00
6300
4100
9C80
9C80
F900
2100
5E00
4000
4000
4000
4000
4000
ENDCHAR
STARTCHAR F1D6
ENCODING 61910
SWIDTH 1040 0
DWIDTH 13 0
BBX 12 13 0 -2
BITMAP
0F80
1FC0
1FE0
3FE0
3FE0
3FE0
7FF0
FFF0
FFF0
FFF0
3FE0
7FE0
3CE0
ENDCHAR
STARTCHAR F1D7
ENCODING 61911
SWIDTH 1120 0
DWIDTH 14 0
BBX 14 12 0 -1
BITMAP
0C00
3F00
7F80
EDC0
FFE0
FFF8
FFFC
7FFC
3FFC
43FC
01F8
00F8
ENDCHAR
STARTCHAR F1D8
ENCODING 61912
SWIDTH 1040 0
DWIDTH 13 0
BBX 13 13 0 -2
BITMAP
0018
0070
00F0
03F0
0F70
3EF0
7DF0
FBE0
37E0
07E0
0FE0
0C60
0800
ENDCHAR
STARTCHAR F1D9
ENCODING 61913
SWIDTH 1040 0
DWIDTH 13 0
BBX 13 13 0 -2
BITMAP
0018
0070
00D0
0310
0C50
3990
6330
C720
3E20
1E20
1DE0
1860
0800
ENDCHAR
STARTCHAR F1DA
ENCODING 61914
SWIDTH 880 0
DWIDTH 11 0
BBX 11 11 0 -1
BITMAP
9F00
FF80
E1C0
F4C0
F460
0460
1C60
20C0
71C0
3F80
1E00
ENDCHAR
STARTCHAR F1DB
ENCODING 61915
SWIDTH 880 0
DWIDTH 11 0
BBX 11 11 0 -1
BITMAP
1F00
2180
4040
8040
8020
8020
8020
C040
40C0
3180
1E00
ENDCHAR
STARTCHAR F1DC
ENCODING 61916
SWIDTH 1040 0
DWIDTH 13 0
BBX 12 11 0 -1
BITMAP
F8F0
3060
3060
3060
3060
3FE0
3060
3060
3060
3060
F8F0
ENDCHAR
STARTCHAR F1DD
ENCODING 61917
SWIDTH 720 0
DWIDTH 9 0
BBX 9 11 0 -1
BITMAP
3F80
7F80
FB00
FB00
FB00
7B00
3B00
0B00
0B00
0B00
0B00
ENDCHAR
STARTCHAR F1DE
ENCODING 61918
SWIDTH 880 0
DWIDTH 11 0
BBX 11 10 0 -1
BITMAP
3800
FFE0
3000
0380
FFE0
0380
0000
1800
FFE0
1800
ENDCHAR
STARTCHAR F1E0
ENCODING 61920
SWIDTH 880 0
DWIDTH 11 0
BBX 11 11 0 -1
BITMAP
01C0
03E0
03E0
7FC0
FC80
F800
FDC0
6FE0
03E0
03E0
01C0
ENDCHAR
STARTCHAR F1E1
ENCODING 61921
SWIDTH 880 0
DWIDTH 11 0
BBX 11 11 0 -1
BITMAP
7FC0
FFE0
FC60
FC60
C2E0
C7E0
CAE0
FC60
FCE0
FFE0
7FC0
ENDCHAR
STARTCHAR F1E2
ENCODING 61922
SWIDTH 1040 0
DWIDTH 13 0
BBX 12 13 0 -2
BITMAP
0040
0030
0030
3FC0
6FC0
DF80
BFC0
FFC0
FFC0
FFC0
7F80
3F00
1E00
ENDCHAR
STARTCHAR F1E3
ENCODING 61923
SWIDTH 1040 0
DWIDTH 13 0
BBX 13 13 0 -2
BITMAP
0F80
3FC0
6720
6070
E270
E778
CF38
8718
8010
78F0
79E0
39C0
0F00
ENDCHAR
STARTCHAR F1E4
ENCODING 61924
SWIDTH 1040 0
DWIDTH 13 0
BBX 13 10 0 0
BITMAP
3FC0
7FF0
F078
F078
E070
DED8
DED8
0000
6DE0
6DE0
ENDCHAR
STARTCHAR F1E5
ENCODING 61925
SWIDTH 1040 0
DWIDTH 13 0
BBX 13 13 0 -2
BITMAP
19C0
19C0
3FE0
7FE0
7FE0
7FF0
FFF0
F9F0
F8F8
F8F8
F8F8
F8F8
F0F8
ENDCHAR
STARTCHAR F1E6
ENCODING 61926
SWIDTH 1040 0
DWIDTH 13 0
BBX 13 13 0 -2
BITMAP
00C0
01C0
0B80
1F18
3E30
3F70
3FE0
3FC0
3FE0
3FC0
7F00
E000
C000
ENDCHAR
STARTCHAR F1E7
ENCODING 61927
SWIDTH 1040 0
DWIDTH 13 0
BBX 12 13 0 -3
BITMAP
7FF0
4010
4010
4010
5D90
5FD0
CD90
7FE0
1FC0
3FC0
3FC0
1FC0
0D00
ENDCHAR
STARTCHAR F1E8
ENCODING 61928
SWIDTH 1040 0
DWIDTH 13 0
BBX 11 12 1 -1
BITMAP
FFE0
C020
C020
C920
C920
C920
C020
C060
F7C0
FF80
3800
3000
ENDCHAR
STARTCHAR F1E9
ENCODING 61929
SWIDTH 880 0
DWIDTH 11 0
BBX 10 13 0 -2
BITMAP
1800
3800
3800
1800
1C80
0DC0
63C0
F000
6300
09C0
1DC0
3C80
0800
ENDCHAR
STARTCHAR F1EA
ENCODING 61930
SWIDTH 1120 0
DWIDTH 14 0
BBX 14 10 0 0
BITMAP
3FFC
E004
BF7C
B97C
B97C
BF7C
A004
BF7C
A004
FFFC
ENDCHAR
STARTCHAR F1EB
ENCODING 61931
SWIDTH 1120 0
DWIDTH 14 0
BBX 14 10 0 0
BITMAP
0FC0
3FF8
F03C
4FEC
3FF0
1330
0FC0
04C0
0300
0100
ENDCHAR
STARTCHAR F1EC
ENCODING 61932
SWIDTH 1040 0
DWIDTH 13 0
BBX 12 13 0 -2
BITMAP
FFF0
8010
8010
8010
FFF0
9490
FFF0
B7B0
B490
FF90
B490
B6B0
FFE0
ENDCHAR
STARTCHAR F1ED
ENCODING 61933
SWIDTH 880 0
DWIDTH 11 0
BBX 11 13 0 -2
BITMAP
3F00
7F80
7FC0
7F80
7FE0
7FE0
7EE0
EFC0
FF80
FC00
FC00
1C00
1800
ENDCHAR
STARTCHAR F1EE
ENCODING 61934
SWIDTH 1040 0
DWIDTH 13 0
BBX 11 12 1 -1
BITMAP
01C0
09C0
1DC0
DEE0
EDE0
7DE0
3DE0
2DE0
1DE0
1DC0
09C0
0080
ENDCHAR
STARTCHAR F1F0
ENCODING 61936
SWIDTH 1280 0
DWIDTH 16 0
BBX 16 11 0 -1
BITMAP
FFFF
FFFF
FFFF
DA9B
FF77
F595
E5D1
ED2D
FFFF
FFFF
FFFF
ENDCHAR
STARTCHAR F1F1
ENCODING 61937
SWIDTH 1280 0
DWIDTH 16 0
BBX 16 11 0 -1
BITMAP
FFFF
FFFF
E187
C283
F267
FFFF
C243
C183
E187
FFFF
FFFF
ENDCHAR
STARTCHAR F1F2
ENCODING 61938
SWIDTH 1280 0
DWIDTH 16 0
BBX 16 11 0 -1
BITMAP
FFFF
FFFF
FFFF
FF7F
FA35
B777
FFFF
FFF9
FFE1
FF01
FFFF
ENDCHAR
STARTCHAR F1F3
ENCODING 61939
SWIDTH 1280 0
DWIDTH 16 0
BBX 16 11 0 -1
BITMAP
FFFF
FFFF
FFFF
EFDF
BFEF
FFFF
FFFF
FF7F
FFFF
FFFF
FFFF
ENDCHAR
STARTCHAR F1F4
ENCODING 61940
SWIDTH 1280 0
DWIDTH 16 0
BBX 16 11 0 -1
BITMAP
FFFF
FFFF
FFFF
FFFF
BFBD
BBAD
FFFF
FFFF
FFFF
FFFF
FFFF
ENDCHAR
STARTCHAR F1F5
ENCODING 61941
SWIDTH 1280 0
DWIDTH 16 0
BBX 16 11 0 -1
BITMAP
FFFF
FFFF
FFFF
F7FF
B589
95A9
D5AB
FFBF
FFFF
FFFF
FFFF
ENDCHAR
STARTCHAR F1F6
ENCODING 61942
SWIDTH 1120 0
DWIDTH 14 0
BBX 14 13 0 -2
BITMAP
0304
078C
0FF8
0FF0
1FE0
1F80
1F20
1E60
3CF0
39F8
73F8
C780
0300
ENDCHAR
STARTCHAR F1F7
ENCODING 61943
SWIDTH 1120 0
DWIDTH 14 0
BBX 14 13 0 -2
BITMAP
0304
078C
0C78
0870
18E0
1980
1320
1620
3C10
3818
73F8
C780
0300
ENDCHAR
STARTCHAR F1F8
ENCODING 61944
SWIDTH 800 0
DWIDTH 10 0
BBX 10 11 0 -1
BITMAP
1E00
3200
FFC0
7F80
7D80
7D80
7D80
7D80
7D80
7F80
7F80
ENDCHAR
STARTCHAR F1F9
ENCODING 61945
SWIDTH 880 0
DWIDTH 11 0
BBX 11 11 0 -1
BITMAP
1F00
2180
4E40
9140
B020
A020
B120
D940
4EC0
3180
1E00
ENDCHAR
STARTCHAR F1FA
ENCODING 61946
SWIDTH 880 0
DWIDTH 11 0
BBX 11 11 0 -1
BITMAP
1F00
2180
5F40
9360
A120
A120
A360
FFC0
5900
3180
1E00
ENDCHAR
STARTCHAR F1FB
ENCODING 61947
SWIDTH 1040 0
DWIDTH 13 0
BBX 13 13 0 -2
BITMAP
0070
00F0
07F8
0FF0
07E0
0FC0
19E0
33C0
6600
4C00
7800
F000
8000
ENDCHAR
STARTCHAR F1FC
ENCODING 61948
SWIDTH 1040 0
DWIDTH 13 0
BBX 13 13 0 -2
BITMAP
0030
0078
00F0
01F0
03E0
07E0
07C0
1B80
3C00
FE00
FE00
7C00
3800
ENDCHAR
STARTCHAR F1FD
ENCODING 61949
SWIDTH 1040 0
DWIDTH 13 0
BBX 13 13 0 -2
BITMAP
2200
3660
2660
3660
3660
3660
7FF0
FFF8
99D8
6660
FFF8
FFF8
FFF8
ENDCHAR
STARTCHAR F1FE
ENCODING 61950
SWIDTH 1120 0
DWIDTH 14 0
BBX 14 11 0 -1
BITMAP
8000
8C00
8E00
9F30
BFF0
BFF8
BFF8
BFF8
BFF8
8000
FFFC
ENDCHAR
STARTCHAR F200
ENCODING 61952
SWIDTH 1040 0
DWIDTH 13 0
BBX 12 12 0 -1
BITMAP
0300
1BC0
3BE0
7BE0
FBF0
FBF0
FDF0
FEF0
FF70
7FA0
3F80
1E00
ENDCHAR
STARTCHAR F201
ENCODING 61953
SWIDTH 1120 0
DWIDTH 14 0
BBX 14 11 0 -1
BITMAP
8000
803C
803C
807C
86E0
8FC0
9F80
B900
B000
8000
FFFC
ENDCHAR
STARTCHAR F202
ENCODING 61954
SWIDTH 1040 0
DWIDTH 13 0
BBX 13 8 0 0
BITMAP
3C60
66B0
C280
83E0
8130
C598
6690
3C70
ENDCHAR
STARTCHAR F203
ENCODING 61955
SWIDTH 880 0
DWIDTH 11 0
BBX 11 11 0 -1
BITMAP
7FC0
FFE0
FFE0
DAE0
BAE0
BD60
BDA0
C620
FFE0
FFE0
7FC0
ENDCHAR
STARTCHAR F204
ENCODING 61956
SWIDTH 1120 0
DWIDTH 14 0
BBX 14 9 0 0
BITMAP
3FF0
6308
C184
8084
8084
8084
C184
6318
3FF0
ENDCHAR
STARTCHAR F205
ENCODING 61957
SWIDTH 1120 0
DWIDTH 14 0
BBX 14 9 0 0
BITMAP
3FF0
7F08
FE04
FC04
FC04
FE04
FE04
7F18
3FF0
ENDCHAR
STARTCHAR F206
ENCODING 61958
SWIDTH 1280 0
DWIDTH 16 0
BBX 16 9 0 0
BITMAP
01C0
1E60
07E0
7C5E
9CB9
9F29
8421
CC33
781E
ENDCHAR
STARTCHAR F207
ENCODING 61959
SWIDTH 880 0
DWIDTH 11 0
BBX 11 13 0 -2
BITMAP
3F00
60C0
7FC0
C040
C060
8060
FFE0
FFE0
9F20
FFE0
FFE0
60C0
40C0
ENDCHAR
STARTCHAR F208
ENCODING 61960
SWIDTH 1120 0
DWIDTH 14 0
BBX 14 12 0 -1
BITMAP
0780
1FE0
3030
2FFC
6FFC
6FC8
6FC8
FFD8
3010
3030
1FE0
0780
ENDCHAR
STARTCHAR F209
ENCODING 61961
SWIDTH 720 0
DWIDTH 9 0
BBX 9 13 0 -2
BITMAP
3100
3280
3B80
2F00
3D00
3F00
5080
4E80
AC80
D880
F900
6200
1C00
ENDCHAR
STARTCHAR F20A
ENCODING 61962
SWIDTH 1120 0
DWIDTH 14 0
BBX 14 11 0 -1
BITMAP
FFFC
FFFC
C84C
DEF4
B7B4
B184
B7B4
DEF4
CC6C
FFFC
FFFC
ENDCHAR
STARTCHAR F20B
ENCODING 61963
SWIDTH 880 0
DWIDTH 11 0
BBX 10 10 0 0
BITMAP
F8C0
FCC0
C6C0
D6C0
D6C0
D6C0
D6C0
D0C0
DF80
DF00
ENDCHAR
STARTCHAR F20C
ENCODING 61964
SWIDTH 880 0
DWIDTH 11 0
BBX 11 11 0 -1
BITMAP
FFC0
FFE0
FFE0
FFE0
8220
FDA0
FC20
FDE0
FFE0
FFE0
7FC0
ENDCHAR
STARTCHAR F20D
ENCODING 61965
SWIDTH 880 0
DWIDTH 11 0
BBX 11 11 0 -1
BITMAP
7FC0
FFE0
F1E0
E5E0
E4E0
E4E0
CCE0
C660
CE60
FFE0
7FC0
ENDCHAR
STARTCHAR F20E
ENCODING 61966
SWIDTH 1120 0
DWIDTH 14 0
BBX 14 13 0 -2
BITMAP
1FE0
19D0
3E90
3308
5318
94B4
9854
94B4
5318
3FF8
3490
1860
1FE0
ENDCHAR
STARTCHAR F210
ENCODING 61968
SWIDTH 880 0
DWIDTH 11 0
BBX 10 13 0 -2
BITMAP
0040
00C0
01C0
FFC0
FFC0
E1C0
E1C0
E1C0
E1C0
E0C0
FFC0
FFC0
7F80
ENDCHAR
STARTCHAR F211
ENCODING 61969
SWIDTH 880 0
DWIDTH 11 0
BBX 11 11 0 -1
BITMAP
1C00
3180
6780
CE40
98E0
B380
3720
6640
6CC0
19C0
1A60
ENDCHAR
STARTCHAR F212
ENCODING 61970
SWIDTH 1120 0
DWIDTH 14 0
BBX 14 10 0 -1
BITMAP
3CF0
7FC8
7FC8
7FC8
BFC8
BFC4
7FC4
FFC4
BFFC
C004
ENDCHAR
STARTCHAR F213
ENCODING 61971
SWIDTH 1120 0
DWIDTH 14 0
BBX 14 11 0 -1
BITMAP
01C0
07E0
07F0
3FB0
7FB0
7EB8
EABC
EABC
EABC
7FFC
3FF0
ENDCHAR
STARTCHAR F214
ENCODING 61972
SWIDTH 880 0
DWIDTH 11 0
BBX 11 12 0 -1
BITMAP
FFE0
FFE0
FFE0
FFE0
8060
9E60
9760
9F60
8E60
C0A0
7BC0
1E00
ENDCHAR
STARTCHAR F215
ENCODING 61973
SWIDTH 1120 0
DWIDTH 14 0
BBX 14 11 0 -1
BITMAP
F83C
F83C
FFFC
FFFC
FFFC
E38C
C30C
E38C
FFFC
FFFC
FFFC
ENDCHAR
STARTCHAR F216
ENCODING 61974
SWIDTH 1120 0
DWIDTH 14 0
BBX 14 9 0 0
BITMAP
0380
0460
7C20
C620
833C
8184
C084
667C
3838
ENDCHAR
STARTCHAR F217
ENCODING 61975
SWIDTH 960 0
DWIDTH 12 0
BBX 12 10 0 -1
BITMAP
E000
3FF0
3DF0
3DF0
1DF0
1FE0
1000
1FE0
1860
1060
ENDCHAR
STARTCHAR F218
ENCODING 61976
SWIDTH 960 0
DWIDTH 12 0
BBX 12 10 0 -1
BITMAP
E000
3FF0
3DF0
39F0
1DF0
1FE0
1000
1FE0
1860
1060
ENDCHAR
STARTCHAR F219
ENCODING 61977
SWIDTH 1120 0
DWIDTH 14 0
BBX 14 12 0 -2
BITMAP
3FF0
24D8
4C48
CFFC
FFFC
6848
3C50
14A0
0EC0
07C0
0380
0100
ENDCHAR
STARTCHAR F21A
ENCODING 61978
SWIDTH 1120 0
DWIDTH 14 0
BBX 14 13 0 -2
BITMAP
0300
0FC0
1860
1FA0
3FF0
3FF0
1FE0
1FE0
1FE0
FFFC
7EBC
FFFC
5AAC
ENDCHAR
STARTCHAR F21B
ENCODING 61979
SWIDTH 880 0
DWIDTH 11 0
BBX 10 12 0 -1
BITMAP
1E00
3E00
7F80
3F00
6100
7F80
7F80
EBC0
FBC0
FFC0
FFC0
7F80
ENDCHAR
STARTCHAR F21C
ENCODING 61980
SWIDTH 1280 0
DWIDTH 16 0
BBX 16 9 0 0
BITMAP
01F8
7878
0FE0
7FDE
9FB9
9FA9
8421
CC33
781E
ENDCHAR
STARTCHAR F21D
ENCODING 61981
SWIDTH 880 0
DWIDTH 11 0
BBX 10 13 0 -2
BITMAP
0C00
1E00
1C00
0C00
1E00
1E00
1E00
1E00
1C00
7D80
DCC0
E1C0
3F00
ENDCHAR
STARTCHAR F21E
ENCODING 61982
SWIDTH 1040 0
DWIDTH 13 0
BBX 13 11 0 -1
BITMAP
79E0
FFF0
FFF8
F3F8
FB70
7A70
7EE0
3DC0
0D80
0700
0200
ENDCHAR
STARTCHAR F221
ENCODING 61985
SWIDTH 720 0
DWIDTH 9 0
BBX 8 13 0 -2
BITMAP
3C
66
C1
81
81
81
42
3C
18
18
3C
18
18
ENDCHAR
STARTCHAR F222
ENCODING 61986
SWIDTH 880 0
DWIDTH 11 0
BBX 11 11 0 -1
BITMAP
01E0
00E0
01A0
7F20
4200
8100
8100
8100
C300
6600
3C00
ENDCHAR
STARTCHAR F223
ENCODING 61987
SWIDTH 720 0
DWIDTH 9 0
BBX 8 13 0 -2
BITMAP
43
66
3C
42
81
81
81
81
42
3C
18
18
18
ENDCHAR
STARTCHAR F224
ENCODING 61988
SWIDTH 880 0
DWIDTH 11 0
BBX 10 13 0 -2
BITMAP
01C0
00C0
3D40
4200
8100
8100
8100
8100
4200
3C00
1800
1800
1800
ENDCHAR
STARTCHAR F225
ENCODING 61989
SWIDTH 1040 0
DWIDTH 13 0
BBX 12 13 0 -2
BITMAP
E070
F070
EFD0
7080
20C0
2040
2040
20C0
1180
0F00
0400
0E00
0400
ENDCHAR
STARTCHAR F226
ENCODING 61990
SWIDTH 1040 0
DWIDTH 13 0
BBX 13 13 0 -2
BITMAP
3DC0
6630
C710
8D18
8918
8510
4630
3FE0
1880
1880
3FE0
1880
1880
ENDCHAR
STARTCHAR F227
ENCODING 61991
SWIDTH 1040 0
DWIDTH 13 0
BBX 14 13 0 -2
BITMAP
01C0
00C0
3D40
421C
811C
87F8
8920
8930
5A10
3C30
0820
0660
0380
ENDCHAR
STARTCHAR F228
ENCODING 61992
SWIDTH 1120 0
DWIDTH 14 0
BBX 14 13 0 -2
BITMAP
001C
000C
3FFC
4630
8510
8D18
8D18
8510
4630
3FE0
1800
1800
1800
ENDCHAR
STARTCHAR F229
ENCODING 61993
SWIDTH 880 0
DWIDTH 11 0
BBX 11 11 0 -1
BITMAP
01E0
02E0
03A0
7FA0
4380
8100
8100
8100
C300
6600
3C00
ENDCHAR
STARTCHAR F22A
ENCODING 61994
SWIDTH 720 0
DWIDTH 9 0
BBX 8 13 0 -2
BITMAP
18
3C
18
3C
18
7E
C3
81
81
81
C3
66
18
ENDCHAR
STARTCHAR F22B
ENCODING 61995
SWIDTH 1120 0
DWIDTH 14 0
BBX 13 8 0 0
BITMAP
3C00
4240
8150
81F8
8158
8170
6600
3C00
ENDCHAR
STARTCHAR F22C
ENCODING 61996
SWIDTH 720 0
DWIDTH 9 0
BBX 8 13 0 -2
BITMAP
3C
66
C1
81
81
81
42
3C
18
18
18
18
18
ENDCHAR
STARTCHAR F22D
ENCODING 61997
SWIDTH 720 0
DWIDTH 9 0
BBX 8 8 0 0
BITMAP
3C
42
81
81
81
81
66
3C
ENDCHAR
STARTCHAR F22E
ENCODING 61998
SWIDTH 1040 0
DWIDTH 13 0
BBX 0 0 0 0
BITMAP
ENDCHAR
STARTCHAR F22F
ENCODING 61999
SWIDTH 1040 0
DWIDTH 13 0
BBX 0 0 0 0
BITMAP
ENDCHAR
STARTCHAR F230
ENCODING 62000
SWIDTH 880 0
DWIDTH 11 0
BBX 11 11 0 -1
BITMAP
FFE0
FFE0
FC60
FDE0
FDE0
F060
FDE0
FDE0
FDE0
FDE0
FDE0
ENDCHAR
STARTCHAR F231
ENCODING 62001
SWIDTH 720 0
DWIDTH 9 0
BBX 9 11 0 -1
BITMAP
1E00
7700
C180
D980
B980
D180
7100
3F00
3C00
2000
2000
ENDCHAR
STARTCHAR F232
ENCODING 62002
SWIDTH 880 0
DWIDTH 11 0
BBX 11 11 0 -1
BITMAP
1F00
2180
4040
D860
9820
9820
8F20
4740
40C0
FB80
8E00
ENDCHAR
STARTCHAR F233
ENCODING 62003
SWIDTH 1040 0
DWIDTH 13 0
BBX 13 10 0 0
BITMAP
FFF8
80E8
FFF8
FFF8
FFF8
FFF8
0000
FFF8
80E8
FFF8
ENDCHAR
STARTCHAR F234
ENCODING 62004
SWIDTH 1120 0
DWIDTH 14 0
BBX 14 11 0 -1
BITMAP
1E00
3E00
3F00
3F20
1E30
7BB0
FFFC
FFFC
FE30
FFB0
7FB0
ENDCHAR
STARTCHAR F235
ENCODING 62005
SWIDTH 1120 0
DWIDTH 14 0
BBX 14 11 0 -1
BITMAP
1E00
3E00
3F00
3F00
1E00
7BCC
FF7C
FFB8
FF78
FFEC
7F44
ENDCHAR
STARTCHAR F236
ENCODING 62006
SWIDTH 1120 0
DWIDTH 14 0
BBX 14 9 0 0
BITMAP
C000
D800
FFF8
FFFC
DBFC
FFFC
FFFC
C00C
C00C
ENDCHAR
STARTCHAR F237
ENCODING 62007
SWIDTH 880 0
DWIDTH 11 0
BBX 11 13 0 -2
BITMAP
C060
C0C0
60C0
E1E0
F1E0
FFE0
FFE0
1B00
1E00
0E00
0C00
0400
0400
ENDCHAR
STARTCHAR F238
ENCODING 62008
SWIDTH 880 0
DWIDTH 11 0
BBX 11 13 0 -2
BITMAP
7F80
FFE0
8060
8060
8060
FFE0
FFE0
F3E0
F1E0
FFE0
7FC0
3F80
7F80
ENDCHAR
STARTCHAR F239
ENCODING 62009
SWIDTH 880 0
DWIDTH 11 0
BBX 11 13 0 -2
BITMAP
7F80
FFE0
8420
8420
8420
FFE0
FFE0
9F60
9F20
FFE0
7FC0
3F80
7F80
ENDCHAR
STARTCHAR F23A
ENCODING 62010
SWIDTH 1040 0
DWIDTH 13 0
BBX 13 11 0 -1
BITMAP
80C0
E1F0
F1F0
FBF8
FFF8
FDF8
FFF8
F7B8
F1F8
7078
1018
ENDCHAR
STARTCHAR F23B
ENCODING 62011
SWIDTH 880 0
DWIDTH 11 0
BBX 11 11 0 -1
BITMAP
FFE0
FFE0
FFE0
FDE0
F7E0
FBE0
FFE0
FFE0
FFE0
FFE0
FFE0
ENDCHAR
STARTCHAR F23C
ENCODING 62012
SWIDTH 1280 0
DWIDTH 16 0
BBX 16 13 0 -2
BITMAP
01C0
07C0
0E60
3CB4
5CBA
5FFA
3FFC
3CEC
3B1C
2424
F7EF
781A
27E4
ENDCHAR
STARTCHAR F23D
ENCODING 62013
SWIDTH 1280 0
DWIDTH 16 0
BBX 16 11 0 -1
BITMAP
8000
6000
1FFF
0007
0002
0004
0008
0010
0000
18E0
18E0
ENDCHAR
STARTCHAR F23E
ENCODING 62014
SWIDTH 1040 0
DWIDTH 13 0
BBX 13 13 0 -2
BITMAP
0F80
3FC0
78E0
B7F0
F770
FFF8
F238
F638
F230
B030
5FE0
3F40
0F80
ENDCHAR
STARTCHAR F240
ENCODING 62016
SWIDTH 1280 0
DWIDTH 16 0
BBX 16 9 0 0
BITMAP
FFFE
8002
BFFF
BFFD
BFFD
BFFD
BFFF
8002
FFFE
ENDCHAR
STARTCHAR F241
ENCODING 62017
SWIDTH 1280 0
DWIDTH 16 0
BBX 16 9 0 0
BITMAP
FFFE
8002
BFE3
BFE1
BFE1
BFE1
BFE3
8002
FFFE
ENDCHAR
STARTCHAR F242
ENCODING 62018
SWIDTH 1280 0
DWIDTH 16 0
BBX 16 9 0 0
BITMAP
FFFE
8002
BF03
BF01
BF01
BF01
BF03
8002
FFFE
ENDCHAR
STARTCHAR F243
ENCODING 62019
SWIDTH 1280 0
DWIDTH 16 0
BBX 16 9 0 0
BITMAP
FFFE
8002
B803
B801
B801
B801
B803
8002
FFFE
ENDCHAR
STARTCHAR F244
ENCODING 62020
SWIDTH 1280 0
DWIDTH 16 0
BBX 16 9 0 0
BITMAP
FFFE
8002
8003
8001
8001
8001
8003
8002
FFFE
ENDCHAR
STARTCHAR F245
ENCODING 62021
SWIDTH 720 0
DWIDTH 9 0
BBX 8 13 0 -2
BITMAP
80
C0
E0
F0
F8
FC
FE
FF
F8
FC
DC
8C
08
ENDCHAR
STARTCHAR F246
ENCODING 62022
SWIDTH 560 0
DWIDTH 7 0
BBX 6 13 0 -2
BITMAP
EC
30
10
10
10
38
38
10
10
10
10
38
CC
ENDCHAR
STARTCHAR F247
ENCODING 62023
SWIDTH 1120 0
DWIDTH 14 0
BBX 14 13 0 -2
BITMAP
E01C
BFFC
E01C
5F8C
50FC
50FC
509C
5F9C
441C
47FC
E01C
BFFC
E01C
ENDCHAR
STARTCHAR F248
ENCODING 62024
SWIDTH 1280 0
DWIDTH 16 0
BBX 16 13 0 -2
BITMAP
E070
BFD0
E070
4027
403D
4027
4022
E072
BFD2
E472
0E07
0BFD
0E07
ENDCHAR
STARTCHAR F249
ENCODING 62025
SWIDTH 880 0
DWIDTH 11 0
BBX 11 11 0 -1
BITMAP
FFE0
FFE0
FFE0
FFE0
FFE0
FFE0
FFE0
FE00
FEE0
FEC0
FE80
ENDCHAR
STARTCHAR F24A
ENCODING 62026
SWIDTH 880 0
DWIDTH 11 0
BBX 11 11 0 -1
BITMAP
FFE0
8020
8020
8020
8020
8020
8020
81E0
8160
81C0
FF80
ENDCHAR
STARTCHAR F24B
ENCODING 62027
SWIDTH 1280 0
DWIDTH 16 0
BBX 16 11 0 -1
BITMAP
FFFF
FFFF
FFFF
FFFF
F5ED
F5EB
E5ED
FFFF
FFFF
FFFF
FFFF
ENDCHAR
STARTCHAR F24C
ENCODING 62028
SWIDTH 1280 0
DWIDTH 16 0
BBX 16 11 0 -1
BITMAP
FFFF
FF1F
FFCF
FB67
FB67
F363
FB67
FFE7
FFCF
FB1F
FFFF
ENDCHAR
STARTCHAR F24D
ENCODING 62029
SWIDTH 1040 0
DWIDTH 13 0
BBX 13 13 0 -2
BITMAP
FFC0
8040
8040
9FF8
9018
9018
9018
9018
9018
D018
1018
1018
1FF0
ENDCHAR
STARTCHAR F24E
ENCODING 62030
SWIDTH 1280 0
DWIDTH 16 0
BBX 15 13 0 -2
BITMAP
0180
1EF8
0180
3118
3118
4924
4544
8542
FD7E
7D7E
0100
0100
1FF8
ENDCHAR
STARTCHAR F250
ENCODING 62032
SWIDTH 880 0
DWIDTH 11 0
BBX 11 13 0 -2
BITMAP
FFE0
4040
4040
40C0
2080
3100
1B00
3180
6080
40C0
4040
4040
FFE0
ENDCHAR
STARTCHAR F251
ENCODING 62033
SWIDTH 880 0
DWIDTH 11 0
BBX 11 13 0 -2
BITMAP
FFE0
4040
7FC0
7FC0
3F80
3F00
1F00
3180
6080
40C0
4040
4040
FFE0
ENDCHAR
STARTCHAR F252
ENCODING 62034
SWIDTH 880 0
DWIDTH 11 0
BBX 11 13 0 -2
BITMAP
FFE0
4040
4040
40C0
3F80
3F00
1F00
3180
6080
7FC0
7FC0
7FC0
FFE0
ENDCHAR
STARTCHAR F253
ENCODING 62035
SWIDTH 880 0
DWIDTH 11 0
BBX 11 13 0 -2
BITMAP
FFE0
4040
4040
40C0
2080
3100
1B00
3180
7F80
7FC0
7FC0
7FC0
FFE0
ENDCHAR
STARTCHAR F254
ENCODING 62036
SWIDTH 880 0
DWIDTH 11 0
BBX 11 13 0 -2
BITMAP
FFE0
FFE0
7FC0
7FC0
3F80
1F00
0E00
1F00
3F80
7FC0
7FC0
FFE0
FFE0
ENDCHAR
STARTCHAR F255
ENCODING 62037
SWIDTH 880 0
DWIDTH 11 0
BBX 11 10 0 -1
BITMAP
3F80
2AE0
EA20
A020
A020
8060
4040
2040
1040
1F80
ENDCHAR
STARTCHAR F256
ENCODING 62038
SWIDTH 1040 0
DWIDTH 13 0
BBX 12 13 0 -2
BITMAP
0600
1D80
1A40
1A60
1AB0
7AB0
F030
9030
C020
4020
2020
1020
1FC0
ENDCHAR
STARTCHAR F257
ENCODING 62039
SWIDTH 1040 0
DWIDTH 13 0
BBX 13 11 0 -1
BITMAP
3800
4E00
41F0
3918
FD18
8198
FF98
1958
0E58
0DF0
07C0
ENDCHAR
STARTCHAR F258
ENCODING 62040
SWIDTH 1120 0
DWIDTH 14 0
BBX 14 13 0 -2
BITMAP
FF80
8040
FE60
C030
7F10
1F08
3E0C
2004
3F04
01C4
0044
0044
007C
ENDCHAR
STARTCHAR F259
ENCODING 62041
SWIDTH 1120 0
DWIDTH 14 0
BBX 13 13 0 -2
BITMAP
0600
0A70
1BD8
39A8
15A8
15A8
7188
B818
9818
C010
3010
1810
0FE0
ENDCHAR
STARTCHAR F25A
ENCODING 62042
SWIDTH 1040 0
DWIDTH 13 0
BBX 12 13 0 -2
BITMAP
1C00
1400
1400
1600
17E0
5570
F010
9010
CAB0
4020
2020
1020
1FC0
ENDCHAR
STARTCHAR F25B
ENCODING 62043
SWIDTH 880 0
DWIDTH 11 0
BBX 11 13 0 -2
BITMAP
0E00
7A00
BA00
9A00
DB80
4AE0
4D20
7F60
22A0
25E0
2040
2040
1F80
ENDCHAR
STARTCHAR F25C
ENCODING 62044
SWIDTH 1120 0
DWIDTH 14 0
BBX 14 7 0 0
BITMAP
FD98
3198
31DC
31FC
316C
336C
330C
ENDCHAR
STARTCHAR F25D
ENCODING 62045
SWIDTH 1040 0
DWIDTH 13 0
BBX 13 13 0 -2
BITMAP
0F80
39C0
6060
4F30
C990
8998
8F18
8B18
C990
49B0
6060
3FC0
0F00
ENDCHAR
STARTCHAR F25E
ENCODING 62046
SWIDTH 1040 0
DWIDTH 13 0
BBX 13 13 0 -2
BITMAP
0F80
39C0
6060
4030
D9D0
A118
A218
A518
D8D0
4030
6060
3FC0
0F00
ENDCHAR
STARTCHAR F260
ENCODING 62048
SWIDTH 1120 0
DWIDTH 14 0
BBX 14 9 0 0
BITMAP
0CC0
1DE0
3330
6198
CCCC
6618
3330
1EE0
0CC0
ENDCHAR
STARTCHAR F261
ENCODING 62049
SWIDTH 1040 0
DWIDTH 13 0
BBX 13 13 0 -2
BITMAP
0F80
3FC0
7FE0
7EF0
F570
EDB8
DEF8
EFF8
F3F0
7FF0
7FE0
3FC0
0F00
ENDCHAR
STARTCHAR F262
ENCODING 62050
SWIDTH 1280 0
DWIDTH 16 0
BBX 16 9 0 0
BITMAP
1FF0
FC3F
4242
9999
B5B5
BDBD
B99D
43C2
3D3C
ENDCHAR
STARTCHAR F263
ENCODING 62051
SWIDTH 720 0
DWIDTH 9 0
BBX 7 13 1 -2
BITMAP
38
7C
C6
C6
EE
7C
92
FE
7C
38
7C
EE
C4
ENDCHAR
STARTCHAR F264
ENCODING 62052
SWIDTH 880 0
DWIDTH 11 0
BBX 11 11 0 -1
BITMAP
7FC0
F1E0
EDE0
EFE0
F1E0
FFE0
E0E0
FBE0
F5E0
EFE0
7FC0
ENDCHAR
STARTCHAR F265
ENCODING 62053
SWIDTH 960 0
DWIDTH 12 0
BBX 12 11 0 -1
BITMAP
FFF0
FFF0
FFF0
EF70
E670
F0F0
F9F0
7FE0
7FE0
3FC0
0F00
ENDCHAR
STARTCHAR F266
ENCODING 62054
SWIDTH 1280 0
DWIDTH 16 0
BBX 16 11 0 -1
BITMAP
F7F7
6322
3144
31C4
108C
18C8
0948
0D70
0E70
0620
0420
ENDCHAR
STARTCHAR F267
ENCODING 62055
SWIDTH 1040 0
DWIDTH 13 0
BBX 13 13 0 -2
BITMAP
0F80
3740
5FE0
7FD0
BEF0
FDE8
FFE8
FBE8
B7F0
7FD0
7FA0
32C0
0F00
ENDCHAR
STARTCHAR F268
ENCODING 62056
SWIDTH 1040 0
DWIDTH 13 0
BBX 13 13 0 -2
BITMAP
0F80
3FC0
7FE0
BCF0
D6F0
CF78
EF78
EF78
F6F0
7EF0
7DE0
3FC0
0B00
ENDCHAR
STARTCHAR F269
ENCODING 62057
SWIDTH 1040 0
DWIDTH 13 0
BBX 13 12 0 -1
BITMAP
4C40
7820
FC30
FC70
F838
F138
FF78
FCF0
7FF0
7FE0
3FC0
0F00
ENDCHAR
STARTCHAR F26A
ENCODING 62058
SWIDTH 1040 0
DWIDTH 13 0
BBX 13 13 0 -2
BITMAP
0F80
3CC0
79E0
7070
E070
E078
E078
E078
F070
7070
78E0
3FC0
0F00
ENDCHAR
STARTCHAR F26B
ENCODING 62059
SWIDTH 1040 0
DWIDTH 13 0
BBX 13 13 0 -2
BITMAP
00F0
0F90
1FF0
3FF0
5870
7870
7FF8
7FF8
F870
BCF0
9FE0
8FC0
7000
ENDCHAR
STARTCHAR F26C
ENCODING 62060
SWIDTH 1120 0
DWIDTH 14 0
BBX 14 11 0 -1
BITMAP
FFF8
800C
800C
800C
800C
800C
800C
800C
FFF8
0200
1FC0
ENDCHAR
STARTCHAR F26D
ENCODING 62061
SWIDTH 1040 0
DWIDTH 13 0
BBX 12 11 0 -1
BITMAP
C070
8030
8EF0
8FF0
8FF0
8FF0
8FF0
C790
C710
C010
E030
ENDCHAR
STARTCHAR F26E
ENCODING 62062
SWIDTH 880 0
DWIDTH 11 0
BBX 10 13 0 -2
BITMAP
3F80
2E00
2980
3F40
3480
2FC0
1740
9740
B340
F480
5F40
3180
0E00
ENDCHAR
STARTCHAR F270
ENCODING 62064
SWIDTH 1040 0
DWIDTH 13 0
BBX 11 13 1 -2
BITMAP
1E00
3F00
3380
0380
1F80
3B80
7380
7380
3F80
1860
8060
7FA0
1E00
ENDCHAR
STARTCHAR F271
ENCODING 62065
SWIDTH 1040 0
DWIDTH 13 0
BBX 12 13 0 -2
BITMAP
31C0
3940
FF70
FFF0
FFF0
8010
8410
8410
9F10
8410
8410
8010
FFE0
ENDCHAR
STARTCHAR F272
ENCODING 62066
SWIDTH 1040 0
DWIDTH 13 0
BBX 12 13 0 -2
BITMAP
31C0
3940
FF70
FFF0
FFF0
8010
8010
8010
9F10
8010
8010
8010
FFE0
ENDCHAR
STARTCHAR F273
ENCODING 62067
SWIDTH 1040 0
DWIDTH 13 0
BBX 12 13 0 -2
BITMAP
31C0
3940
FF70
FFF0
FFF0
8010
8910
8E10
8610
8B10
8010
8010
FFE0
ENDCHAR
STARTCHAR F274
ENCODING 62068
SWIDTH 1040 0
DWIDTH 13 0
BBX 12 13 0 -2
BITMAP
31C0
3940
FF70
FFF0
FFF0
8010
8090
8190
9B10
8E10
8410
8010
FFE0
ENDCHAR
STARTCHAR F275
ENCODING 62069
SWIDTH 1040 0
DWIDTH 13 0
BBX 13 13 0 -2
BITMAP
F000
F000
F000
F000
F318
F778
FFF8
FFF8
FFF8
FFF8
FFF8
FFF8
FFF8
ENDCHAR
STARTCHAR F276
ENCODING 62070
SWIDTH 560 0
DWIDTH 7 0
BBX 7 13 0 -2
BITMAP
38
6C
FE
FE
FE
FE
7C
00
18
18
18
18
10
ENDCHAR
STARTCHAR F277
ENCODING 62071
SWIDTH 1040 0
DWIDTH 13 0
BBX 12 13 0 -2
BITMAP
0600
7FF0
7FF0
7FE0
0600
7FE0
FFF0
7FF0
0000
0600
0600
0600
0600
ENDCHAR
STARTCHAR F278
ENCODING 62072
SWIDTH 1120 0
DWIDTH 14 0
BBX 14 13 0 -2
BITMAP
0C04
7BBC
C8E4
8844
8844
8844
8844
8844
8844
8844
9E4C
F3F8
8040
ENDCHAR
STARTCHAR F279
ENCODING 62073
SWIDTH 1040 0
DWIDTH 13 0
BBX 13 13 0 -2
BITMAP
1818
7E78
FF78
FF78
FF78
FF78
FF78
FF78
FF78
FF78
FF78
E760
8140
ENDCHAR
STARTCHAR F27A
ENCODING 62074
SWIDTH 1040 0
DWIDTH 13 0
BBX 13 11 0 -2
BITMAP
1FC0
7FE0
FFF0
FFF0
E938
FFF0
7FF0
3FE0
3F80
7000
4000
ENDCHAR
STARTCHAR F27B
ENCODING 62075
SWIDTH 1040 0
DWIDTH 13 0
BBX 13 11 0 -2
BITMAP
1FC0
6060
C010
9210
9ED8
8010
4030
7060
2F80
7800
6000
ENDCHAR
STARTCHAR F27C
ENCODING 62076
SWIDTH 560 0
DWIDTH 7 0
BBX 7 13 0 -2
BITMAP
10
70
F0
F6
FE
C6
82
C6
FE
DE
1E
1C
10
ENDCHAR
STARTCHAR F27D
ENCODING 62077
SWIDTH 1040 0
DWIDTH 13 0
BBX 11 10 1 0
BITMAP
00C0
71E0
FBE0
F8E0
39E0
39C0
3F80
1F80
1F00
1E00
ENDCHAR
STARTCHAR F27E
ENCODING 62078
SWIDTH 880 0
DWIDTH 11 0
BBX 11 11 0 -1
BITMAP
FFE0
E1E0
F1E0
FBE0
F3E0
F1E0
F1E0
E1E0
F1E0
FBE0
FFE0
ENDCHAR
STARTCHAR F280
ENCODING 62080
SWIDTH 880 0
DWIDTH 11 0
BBX 11 11 0 -1
BITMAP
FFE0
FFE0
FC60
EAE0
EFE0
CEE0
EEE0
EEE0
EEE0
FFE0
FFE0
ENDCHAR
STARTCHAR F281
ENCODING 62081
SWIDTH 1040 0
DWIDTH 13 0
BBX 13 12 0 -1
BITMAP
01A0
0270
0200
0200
1F80
FFF0
FFF8
6770
7FF0
7FF0
3FE0
1F80
ENDCHAR
STARTCHAR F282
ENCODING 62082
SWIDTH 1040 0
DWIDTH 13 0
BBX 12 13 0 -2
BITMAP
0F80
3FC0
3FE0
68F0
50F0
BFF0
3FF0
3FF0
3000
3820
1FE0
0FE0
0780
ENDCHAR
STARTCHAR F283
ENCODING 62083
SWIDTH 1280 0
DWIDTH 16 0
BBX 16 11 0 -1
BITMAP
FFFF
FFFF
FFFF
0000
0000
FFFF
FFFF
FFFF
D9FF
FFFF
FFFF
ENDCHAR
STARTCHAR F284
ENCODING 62084
SWIDTH 1040 0
DWIDTH 13 0
BBX 12 13 0 -2
BITMAP
0F80
3040
4620
8F90
9FE0
BF70
BE60
BFC0
9FE0
8F90
4020
2040
1F80
ENDCHAR
STARTCHAR F285
ENCODING 62085
SWIDTH 1040 0
DWIDTH 13 0
BBX 12 13 0 -2
BITMAP
4000
73F0
7BF0
7FE0
7FC0
7FC0
3BE0
1FE0
3FE0
7FE0
7FE0
FC60
0020
ENDCHAR
STARTCHAR F286
ENCODING 62086
SWIDTH 1040 0
DWIDTH 13 0
BBX 12 13 0 -2
BITMAP
0400
0700
0700
0400
3D40
3FC0
3EC0
BFD0
FFF0
F9F0
F9F0
F9F0
F9F0
ENDCHAR
STARTCHAR F287
ENCODING 62087
SWIDTH 1280 0
DWIDTH 16 0
BBX 16 10 0 0
BITMAP
00C0
03E0
06C0
6404
FFFF
FFFF
6104
01B8
00F8
0038
ENDCHAR
STARTCHAR F288
ENCODING 62088
SWIDTH 1040 0
DWIDTH 13 0
BBX 13 13 0 -2
BITMAP
0F80
3FC0
7FE0
70F0
F670
F778
F678
F1F8
F7F0
7FF0
7FE0
3FC0
0F00
ENDCHAR
STARTCHAR F289
ENCODING 62089
SWIDTH 1280 0
DWIDTH 16 0
BBX 16 9 0 0
BITMAP
0F80
18C0
3062
7867
8075
805D
C01D
7FF5
0003
ENDCHAR
STARTCHAR F28A
ENCODING 62090
SWIDTH 880 0
DWIDTH 11 0
BBX 11 13 0 -2
BITMAP
1E00
7F00
7380
6380
7000
7C00
3F00
0F80
6380
E3C0
F7E0
7FC0
1E80
ENDCHAR
STARTCHAR F28B
ENCODING 62091
SWIDTH 880 0
DWIDTH 11 0
BBX 11 11 0 -1
BITMAP
1F00
3F80
7FC0
E4C0
E4E0
E4E0
E4E0
E4C0
7FC0
3F80
1E00
ENDCHAR
STARTCHAR F28C
ENCODING 62092
SWIDTH 880 0
DWIDTH 11 0
BBX 11 11 0 -1
BITMAP
1F00
3F80
60C0
DBC0
DB60
DB60
DB60
DBC0
61C0
3F80
1E00
ENDCHAR
STARTCHAR F28D
ENCODING 62093
SWIDTH 880 0
DWIDTH 11 0
BBX 11 11 0 -1
BITMAP
1F00
3F80
7FC0
E1C0
E1E0
E1E0
E1E0
E1C0
7FC0
3F80
1E00
ENDCHAR
STARTCHAR F28E
ENCODING 62094
SWIDTH 880 0
DWIDTH 11 0
BBX 11 11 0 -1
BITMAP
1F00
3F80
60C0
DFC0
DF60
DF60
DF60
DFC0
61C0
3F80
1E00
ENDCHAR
STARTCHAR F290
ENCODING 62096
SWIDTH 1040 0
DWIDTH 13 0
BBX 13 13 0 -2
BITMAP
0700
0980
1880
1880
7FF0
7FF0
FFF0
FFF0
FFF0
FFF0
FFF0
FFF8
FFF8
ENDCHAR
STARTCHAR F291
ENCODING 62097
SWIDTH 1120 0
DWIDTH 14 0
BBX 14 13 0 -2
BITMAP
0FC0
1FF0
2010
2010
2018
FFFC
FFFC
7F78
7B78
6B78
6B78
3FF8
3FF0
ENDCHAR
STARTCHAR F292
ENCODING 62098
SWIDTH 1040 0
DWIDTH 13 0
BBX 12 11 0 -1
BITMAP
0EE0
0CC0
3FF0
7FF0
7FF0
1980
FFE0
FFE0
3B80
3300
3300
ENDCHAR
STARTCHAR F293
ENCODING 62099
SWIDTH 880 0
DWIDTH 11 0
BBX 9 13 1 -2
BITMAP
3E00
7F00
F700
FB80
D580
E380
F780
EB80
D580
F380
F700
7F00
3C00
ENDCHAR
STARTCHAR F294
ENCODING 62100
SWIDTH 560 0
DWIDTH 7 0
BBX 7 12 0 -2
BITMAP
10
18
1C
D6
74
38
18
3C
56
14
18
10
ENDCHAR
STARTCHAR F295
ENCODING 62101
SWIDTH 880 0
DWIDTH 11 0
BBX 11 11 0 -1
BITMAP
70C0
F9C0
DB80
FB00
7E00
2F80
1FC0
1F60
3660
73C0
6180
ENDCHAR
STARTCHAR F296
ENCODING 62102
SWIDTH 1040 0
DWIDTH 13 0
BBX 0 0 0 0
BITMAP
ENDCHAR
STARTCHAR F297
ENCODING 62103
SWIDTH 1040 0
DWIDTH 13 0
BBX 0 0 0 0
BITMAP
ENDCHAR
STARTCHAR F298
ENCODING 62104
SWIDTH 1040 0
DWIDTH 13 0
BBX 0 0 0 0
BITMAP
ENDCHAR
STARTCHAR F299
ENCODING 62105
SWIDTH 1040 0
DWIDTH 13 0
BBX 0 0 0 0
BITMAP
ENDCHAR
STARTCHAR F29A
ENCODING 62106
SWIDTH 1040 0
DWIDTH 13 0
BBX 0 0 0 0
BITMAP
ENDCHAR
STARTCHAR F29B
ENCODING 62107
SWIDTH 1040 0
DWIDTH 13 0
BBX 0 0 0 0
BITMAP
ENDCHAR
STARTCHAR F29C
ENCODING 62108
SWIDTH 1040 0
DWIDTH 13 0
BBX 0 0 0 0
BITMAP
ENDCHAR
STARTCHAR F29D
ENCODING 62109
SWIDTH 1040 0
DWIDTH 13 0
BBX 0 0 0 0
BITMAP
ENDCHAR
STARTCHAR F29E
ENCODING 62110
SWIDTH 1040 0
DWIDTH 13 0
BBX 0 0 0 0
BITMAP
ENDCHAR
STARTCHAR F500
ENCODING 62720
SWIDTH 1040 0
DWIDTH 13 0
BBX 0 0 0 0
BITMAP
ENDCHAR
ENDFONT
